<svg width="63" height="20" viewBox="0 0 63 20" fill="none" xmlns="http://www.w3.org/2000/svg">
<path d="M59.0349 9.99998L53.4072 15.6276L55.0148 17.2352L62.25 9.99998L55.0148 2.76477L53.4072 4.37234L59.0349 9.99998Z" fill="#444444"/>
<path d="M5.83521 10.8984H3.16333V15.5H1.65552V4.125H5.42114C6.70239 4.125 7.68677 4.41667 8.37427 5C9.06698 5.58333 9.41333 6.43229 9.41333 7.54688C9.41333 8.25521 9.22062 8.8724 8.83521 9.39844C8.455 9.92448 7.92375 10.3177 7.24146 10.5781L9.91333 15.4062V15.5H8.30396L5.83521 10.8984ZM3.16333 9.67188H5.46802C6.21281 9.67188 6.80396 9.47917 7.24146 9.09375C7.68416 8.70833 7.90552 8.19271 7.90552 7.54688C7.90552 6.84375 7.69458 6.30469 7.27271 5.92969C6.85604 5.55469 6.25187 5.36458 5.46021 5.35938H3.16333V9.67188ZM14.804 15.6562C13.6581 15.6562 12.7258 15.2812 12.0071 14.5312C11.2883 13.776 10.929 12.7682 10.929 11.5078V11.2422C10.929 10.4036 11.0878 9.65625 11.4055 9C11.7284 8.33854 12.1764 7.82292 12.7493 7.45312C13.3274 7.07812 13.9524 6.89062 14.6243 6.89062C15.7232 6.89062 16.5774 7.2526 17.1868 7.97656C17.7961 8.70052 18.1008 9.73698 18.1008 11.0859V11.6875H12.3743C12.3951 12.5208 12.6373 13.1953 13.1008 13.7109C13.5696 14.2214 14.1633 14.4766 14.8821 14.4766C15.3925 14.4766 15.8248 14.3724 16.179 14.1641C16.5331 13.9557 16.843 13.6797 17.1086 13.3359L17.9915 14.0234C17.2831 15.112 16.2206 15.6562 14.804 15.6562ZM14.6243 8.07812C14.0409 8.07812 13.5514 8.29167 13.1555 8.71875C12.7597 9.14062 12.5149 9.73438 12.4211 10.5H16.6555V10.3906C16.6139 9.65625 16.4159 9.08854 16.0618 8.6875C15.7076 8.28125 15.2284 8.07812 14.6243 8.07812ZM21.7415 5V7.04688H23.3196V8.16406H21.7415V13.4062C21.7415 13.7448 21.8118 14 21.9524 14.1719C22.093 14.3385 22.3326 14.4219 22.6711 14.4219C22.8378 14.4219 23.067 14.3906 23.3586 14.3281V15.5C22.9784 15.6042 22.6086 15.6562 22.2493 15.6562C21.6034 15.6562 21.1165 15.4609 20.7883 15.0703C20.4602 14.6797 20.2961 14.125 20.2961 13.4062V8.16406H18.7571V7.04688H20.2961V5H21.7415ZM30.2336 14.6641C29.6711 15.3255 28.8456 15.6562 27.7571 15.6562C26.856 15.6562 26.1685 15.3958 25.6946 14.875C25.2258 14.349 24.9889 13.5729 24.9836 12.5469V7.04688H26.429V12.5078C26.429 13.7891 26.9498 14.4297 27.9915 14.4297C29.0956 14.4297 29.83 14.0182 30.1946 13.1953V7.04688H31.6399V15.5H30.2649L30.2336 14.6641ZM37.929 8.34375C37.7102 8.30729 37.4732 8.28906 37.218 8.28906C36.2701 8.28906 35.6269 8.69271 35.2883 9.5V15.5H33.843V7.04688H35.2493L35.2727 8.02344C35.7467 7.26823 36.4185 6.89062 37.2883 6.89062C37.5696 6.89062 37.7831 6.92708 37.929 7V8.34375ZM40.6321 7.04688L40.679 8.10938C41.3248 7.29688 42.1685 6.89062 43.2102 6.89062C44.9967 6.89062 45.8977 7.89844 45.9133 9.91406V15.5H44.468V9.90625C44.4628 9.29688 44.3222 8.84635 44.0461 8.55469C43.7753 8.26302 43.3508 8.11719 42.7727 8.11719C42.304 8.11719 41.8925 8.24219 41.5383 8.49219C41.1842 8.74219 40.9081 9.07031 40.7102 9.47656V15.5H39.2649V7.04688H40.6321Z" fill="#444444"/>
</svg>
