<svg width="469" height="126" viewBox="0 0 469 126" fill="none" xmlns="http://www.w3.org/2000/svg">
<path d="M61.7231 62.7239V16.1785H79.1776C84.5261 16.1785 88.5943 17.5497 91.3821 20.2921C94.1852 23.0345 95.5867 26.6254 95.5867 31.0648C95.5867 34.2315 94.8746 36.9512 93.4503 39.2239C92.0261 41.4966 89.9503 43.1785 87.2231 44.2694L97.2912 62.7239H87.8821L78.7458 45.6785H70.1549V62.7239H61.7231ZM70.1549 38.6785H77.9276C81.0488 38.6785 83.3367 38.0269 84.7912 36.7239C86.2609 35.4209 86.9958 33.5345 86.9958 31.0648C86.9958 28.58 86.2609 26.6557 84.7912 25.2921C83.3367 23.9133 81.0337 23.2239 77.8821 23.2239H70.1549V38.6785ZM117.939 63.4057C114.439 63.4057 111.416 62.6709 108.871 61.2012C106.34 59.7315 104.394 57.6557 103.03 54.9739C101.666 52.2921 100.984 49.1254 100.984 45.4739C100.984 41.883 101.666 38.7315 103.03 36.0194C104.394 33.2921 106.31 31.1709 108.78 29.6557C111.265 28.1254 114.174 27.3603 117.507 27.3603C120.371 27.3603 123.015 27.9815 125.439 29.2239C127.863 30.4512 129.803 32.3678 131.257 34.9739C132.727 37.5648 133.462 40.9057 133.462 44.9966V47.5194H109.144C109.189 50.5042 110.015 52.83 111.621 54.4966C113.242 56.1633 115.386 56.9966 118.053 56.9966C119.825 56.9966 121.356 56.6178 122.644 55.8603C123.947 55.0875 124.878 53.9663 125.439 52.4966L133.121 53.3603C132.394 56.3906 130.697 58.8224 128.03 60.6557C125.378 62.4891 122.015 63.4057 117.939 63.4057ZM109.166 41.9739H125.575C125.56 39.5951 124.818 37.633 123.348 36.0875C121.894 34.5421 119.984 33.7694 117.621 33.7694C115.166 33.7694 113.174 34.58 111.644 36.2012C110.113 37.8224 109.287 39.7466 109.166 41.9739ZM140.422 62.7239V16.1785H148.649V41.8375H149.217L161.763 27.8148H171.376L157.854 42.883L172.172 62.7239H162.331L151.649 47.7921L148.649 50.9966V62.7239H140.422ZM194.291 27.8148V34.1785H187.405V52.2239C187.405 53.8754 187.769 54.9663 188.496 55.4966C189.223 56.0118 190.102 56.2694 191.132 56.2694C191.647 56.2694 192.117 56.2315 192.541 56.1557C192.981 56.08 193.314 56.0118 193.541 55.9512L194.928 62.383C194.488 62.5345 193.859 62.7012 193.041 62.883C192.238 63.0648 191.253 63.1709 190.087 63.2012C186.996 63.2921 184.397 62.5345 182.291 60.9285C180.2 59.3224 179.162 56.8754 179.178 53.5875V34.1785H174.223V27.8148H179.178V19.4512H187.405V27.8148H194.291ZM201.172 62.7239V27.8148H209.399V62.7239H201.172ZM205.308 22.8603C203.99 22.8603 202.861 22.4285 201.922 21.5648C200.998 20.686 200.536 19.633 200.536 18.4057C200.536 17.1633 200.998 16.1103 201.922 15.2466C202.861 14.3678 203.99 13.9285 205.308 13.9285C206.611 13.9285 207.725 14.3678 208.649 15.2466C209.589 16.1103 210.058 17.1633 210.058 18.4057C210.058 19.633 209.589 20.686 208.649 21.5648C207.725 22.4285 206.611 22.8603 205.308 22.8603ZM235.769 27.8148V34.1785H228.519V62.7239H220.291V34.1785H215.132V27.8148H220.291V24.5194C220.291 22.1709 220.776 20.2163 221.746 18.6557C222.731 17.0951 224.049 15.9285 225.7 15.1557C227.352 14.383 229.185 13.9966 231.2 13.9966C232.625 13.9966 233.89 14.1103 234.996 14.3375C236.102 14.5648 236.92 14.7694 237.45 14.9512L235.791 21.3148C235.458 21.2088 235.026 21.1027 234.496 20.9966C233.965 20.8754 233.375 20.8148 232.723 20.8148C231.193 20.8148 230.109 21.186 229.473 21.9285C228.837 22.6557 228.519 23.7012 228.519 25.0648V27.8148H235.769ZM247.053 76.3148C245.856 76.3148 244.81 76.2088 243.916 75.9966C243.022 75.7845 242.34 75.58 241.871 75.383L243.78 68.7921C245.583 69.3072 247.09 69.3982 248.303 69.0648C249.53 68.7315 250.53 67.6027 251.303 65.6785L252.121 63.4512L239.462 27.8148H248.189L256.234 54.1785H256.598L264.666 27.8148H273.416L259.325 67.2694C258.356 70.0118 256.863 72.2012 254.848 73.8375C252.833 75.4891 250.234 76.3148 247.053 76.3148Z" fill="#444444"/>
<path d="M294.214 44.104C294.214 44.392 294.142 44.776 293.998 45.256C293.878 45.712 293.734 45.94 293.566 45.94C293.398 45.94 293.266 45.868 293.17 45.724C293.098 45.556 293.026 45.34 292.954 45.076C292.69 44.26 292.282 43.576 291.73 43.024C291.202 42.448 290.626 42.16 290.002 42.16C288.322 42.16 287.11 43.3 286.366 45.58C285.646 47.836 285.286 50.488 285.286 53.536C286.006 53.488 286.81 53.38 287.698 53.212C288.61 53.02 289.21 52.9 289.498 52.852C291.202 52.492 292.33 52.312 292.882 52.312C293.362 52.312 293.602 52.528 293.602 52.96C293.602 53.296 293.53 53.656 293.386 54.04C293.242 54.424 293.026 54.616 292.738 54.616C292.498 54.616 292.258 54.568 292.018 54.472C291.682 54.328 291.226 54.256 290.65 54.256C290.266 54.256 289.474 54.376 288.274 54.616L285.394 55.048C285.394 55.648 285.466 57.316 285.61 60.052C285.85 64.276 285.97 67.648 285.97 70.168C285.97 70.624 285.922 70.936 285.826 71.104C285.73 71.296 285.538 71.392 285.25 71.392C284.914 71.392 284.662 71.2 284.494 70.816C284.326 70.432 284.242 70 284.242 69.52C284.242 66.76 284.062 62.428 283.702 56.524L283.63 55.372C283.438 55.396 282.814 55.504 281.758 55.696C280.726 55.888 279.97 55.984 279.49 55.984C279.226 55.984 278.998 55.924 278.806 55.804C278.638 55.684 278.554 55.504 278.554 55.264C278.554 54.664 278.77 54.352 279.202 54.328C279.826 54.304 280.582 54.256 281.47 54.184C282.358 54.088 283.042 53.992 283.522 53.896C283.522 49.96 284.05 46.768 285.106 44.32C286.186 41.848 287.782 40.612 289.894 40.612C290.662 40.612 291.37 40.804 292.018 41.188C292.69 41.572 293.218 42.04 293.602 42.592C294.01 43.144 294.214 43.648 294.214 44.104ZM307.495 59.548C307.495 60.484 307.147 61.564 306.451 62.788C305.755 64.012 304.771 65.068 303.499 65.956C302.227 66.82 300.775 67.252 299.143 67.252C297.535 67.252 296.347 66.808 295.579 65.92C294.811 65.032 294.427 63.928 294.427 62.608C294.427 61.456 294.631 60.028 295.039 58.324C295.471 56.62 296.071 55.096 296.839 53.752C296.887 53.656 297.079 53.308 297.415 52.708C297.775 52.084 298.171 51.616 298.603 51.304C299.035 50.968 299.491 50.8 299.971 50.8C300.187 50.8 300.379 50.86 300.547 50.98C300.739 51.076 300.835 51.208 300.835 51.376C300.835 51.424 300.763 51.544 300.619 51.736C300.499 51.904 300.403 52.036 300.331 52.132C299.515 53.116 298.855 54.088 298.351 55.048C297.679 56.272 297.151 57.484 296.767 58.684C296.407 59.884 296.227 61.192 296.227 62.608C296.227 64.504 297.379 65.452 299.683 65.452C300.763 65.452 301.759 65.14 302.671 64.516C303.607 63.892 304.351 63.136 304.903 62.248C305.455 61.336 305.731 60.508 305.731 59.764C305.731 58.924 305.455 58.192 304.903 57.568C304.351 56.944 303.595 56.284 302.635 55.588C302.011 55.132 301.555 54.76 301.267 54.472C300.979 54.184 300.835 53.944 300.835 53.752C300.835 53.464 301.039 53.236 301.447 53.068C301.855 52.876 302.335 52.78 302.887 52.78C303.199 52.78 303.403 52.804 303.499 52.852C303.595 52.876 303.643 52.936 303.643 53.032C303.643 53.08 303.595 53.164 303.499 53.284C303.427 53.38 303.391 53.464 303.391 53.536C303.391 53.608 303.631 53.848 304.111 54.256C305.071 55.048 305.875 55.852 306.523 56.668C307.171 57.484 307.495 58.444 307.495 59.548ZM322.75 51.844C322.75 52.06 322.594 52.312 322.282 52.6C321.994 52.864 321.742 52.996 321.526 52.996C321.358 52.996 321.19 52.924 321.022 52.78C320.878 52.636 320.71 52.432 320.518 52.168C320.35 51.928 320.122 51.724 319.834 51.556C319.57 51.388 319.294 51.304 319.006 51.304C318.31 51.304 317.374 52.228 316.198 54.076C315.022 55.9 313.87 58.204 312.742 60.988C312.766 61.54 312.802 62.236 312.85 63.076C312.922 63.916 312.97 64.54 312.994 64.948L313.102 66.388C313.102 66.724 313.03 67.012 312.886 67.252C312.742 67.516 312.478 67.648 312.094 67.648C311.686 67.648 311.422 67.108 311.302 66.028C311.182 64.924 311.11 63.328 311.086 61.24C311.062 60.712 311.038 59.956 311.014 58.972C311.014 57.988 310.99 56.812 310.942 55.444C310.87 53.38 310.834 51.904 310.834 51.016C310.834 50.464 311.17 50.188 311.842 50.188C312.25 50.188 312.49 50.368 312.562 50.728C312.658 51.064 312.706 51.724 312.706 52.708V58.432C313.426 56.584 314.206 54.988 315.046 53.644C315.886 52.3 316.702 51.28 317.494 50.584C318.31 49.864 319.03 49.504 319.654 49.504C320.182 49.504 320.686 49.624 321.166 49.864C321.646 50.104 322.03 50.416 322.318 50.8C322.606 51.16 322.75 51.508 322.75 51.844ZM310.93 85.672C310.93 85.928 310.818 86.2 310.594 86.488C310.37 86.744 310.082 86.872 309.73 86.872C309.634 86.872 309.298 86.792 308.722 86.632C308.178 86.44 307.666 86.344 307.186 86.344C305.65 86.344 303.906 86.424 301.954 86.584C300.002 86.744 298.386 86.968 297.106 87.256C297.202 88.792 297.282 91.224 297.346 94.552C297.442 97.848 297.49 101.32 297.49 104.968C297.49 106.504 297.458 108.216 297.394 110.104C297.362 111.992 297.298 113.16 297.202 113.608C297.138 113.96 296.914 114.248 296.53 114.472C296.178 114.696 295.81 114.808 295.426 114.808C295.202 114.808 295.01 114.712 294.85 114.52C294.69 114.328 294.61 114.104 294.61 113.848L294.658 112.168C294.85 109.672 294.946 106.6 294.946 102.952C294.946 100.328 294.914 97.336 294.85 93.976C294.786 90.584 294.722 88.488 294.658 87.688C288.258 88.392 283.986 89.048 281.842 89.656C281.458 89.784 281.026 89.848 280.546 89.848C279.97 89.848 279.41 89.64 278.866 89.224C278.322 88.808 278.05 88.36 278.05 87.88C278.05 87.56 278.146 87.336 278.338 87.208C278.53 87.048 278.77 86.968 279.058 86.968C280.882 86.872 282.418 86.776 283.666 86.68C286.514 86.424 290.098 86.024 294.418 85.48C294.418 84.488 294.434 83.784 294.466 83.368C294.53 82.952 294.642 82.744 294.802 82.744C295.41 82.744 295.954 82.984 296.434 83.464C296.53 83.56 296.61 83.816 296.674 84.232C296.738 84.616 296.77 84.872 296.77 85C297.474 84.968 298.626 84.808 300.226 84.52C303.682 83.976 306.05 83.704 307.33 83.704C308.866 83.704 309.89 83.896 310.402 84.28C310.754 84.536 310.93 85 310.93 85.672ZM332.486 102.76C332.71 102.76 332.822 103 332.822 103.48C332.822 104.056 332.39 105.32 331.526 107.272C330.694 109.224 329.414 111.032 327.686 112.696C325.99 114.36 323.894 115.192 321.398 115.192C319.35 115.192 317.638 114.552 316.262 113.272C314.886 111.992 314.198 110.024 314.198 107.368C314.198 104.872 314.774 102.408 315.926 99.976C317.078 97.512 318.582 95.512 320.438 93.976C322.294 92.408 324.214 91.624 326.198 91.624C327.382 91.624 328.374 91.896 329.174 92.44C330.006 92.952 330.422 93.704 330.422 94.696C330.422 95.816 329.782 96.904 328.502 97.96C327.254 99.016 325.622 99.944 323.606 100.744C321.59 101.544 319.51 102.12 317.366 102.472C316.982 103.944 316.79 105.384 316.79 106.792C316.79 108.648 317.222 110.088 318.086 111.112C318.982 112.136 320.246 112.648 321.878 112.648C324.342 112.648 326.342 111.768 327.878 110.008C329.414 108.248 330.694 106.264 331.718 104.056C331.782 103.928 331.894 103.688 332.054 103.336C332.214 102.952 332.358 102.76 332.486 102.76ZM328.262 95.224C328.262 94.712 327.99 94.312 327.446 94.024C326.934 93.736 326.326 93.592 325.622 93.592C324.406 93.592 323.238 93.992 322.118 94.792C320.998 95.592 320.054 96.552 319.286 97.672C318.55 98.792 318.07 99.784 317.846 100.648C319.318 100.488 320.87 100.072 322.502 99.4C324.134 98.728 325.494 97.992 326.582 97.192C327.702 96.392 328.262 95.736 328.262 95.224ZM356.48 111.928C356.512 112.152 356.64 112.392 356.864 112.648C357.088 112.872 357.2 113.064 357.2 113.224C357.2 113.608 357.04 114.056 356.72 114.568C356.4 115.048 356.08 115.288 355.76 115.288C355.216 115.288 354.8 114.952 354.512 114.28C354.224 113.608 354.08 112.824 354.08 111.928C354.08 111.16 354.128 108.856 354.224 105.016L354.272 103.192C354.272 102.456 354.08 101.928 353.696 101.608C352.256 104.04 350.912 106.152 349.664 107.944C348.416 109.736 346.832 111.432 344.912 113.032C342.992 114.6 340.976 115.384 338.864 115.384C337.84 115.384 337.04 115.064 336.464 114.424C335.92 113.784 335.648 112.952 335.648 111.928C335.648 110.648 336.224 108.904 337.376 106.696C338.528 104.456 340 102.2 341.792 99.928C343.584 97.624 345.376 95.736 347.168 94.264C348.352 93.304 349.296 92.664 350 92.344C350.704 91.992 351.328 91.816 351.872 91.816C352.384 91.816 352.912 91.976 353.456 92.296C354 92.616 354.464 93.064 354.848 93.64C355.232 94.216 355.424 94.872 355.424 95.608C355.424 96.6 355.152 97.544 354.608 98.44L355.424 98.2C355.776 98.2 355.984 98.632 356.048 99.496C356.08 100.008 356.112 101.048 356.144 102.616C356.208 104.184 356.256 105.48 356.288 106.504C356.32 107.56 356.352 108.584 356.384 109.576C356.416 110.568 356.448 111.352 356.48 111.928ZM339.536 112.792C341.264 112.792 342.928 112.152 344.528 110.872C346.128 109.592 347.552 108.072 348.8 106.312C350.08 104.52 351.488 102.328 353.024 99.736C353.408 98.776 353.6 97.736 353.6 96.616C353.6 95.944 353.392 95.368 352.976 94.888C352.592 94.376 352.064 94.12 351.392 94.12C350.592 94.12 349.568 94.664 348.32 95.752C346.88 96.968 345.36 98.6 343.76 100.648C342.16 102.664 340.832 104.664 339.776 106.648C338.72 108.632 338.192 110.2 338.192 111.352C338.192 112.312 338.64 112.792 339.536 112.792ZM376.558 104.44C376.558 104.632 376.222 105.224 375.55 106.216C374.91 107.208 374.254 108.104 373.582 108.904C371.918 110.92 370.414 112.472 369.07 113.56C367.758 114.648 366.382 115.192 364.942 115.192C363.726 115.192 362.718 114.664 361.918 113.608C361.15 112.552 360.766 111.336 360.766 109.96C360.766 107.912 361.31 105.32 362.398 102.184C363.486 99.048 364.862 96.328 366.526 94.024C368.19 91.72 369.854 90.568 371.518 90.568C372.222 90.568 372.83 90.824 373.342 91.336C373.63 91.624 373.902 92.008 374.158 92.488C374.414 92.968 374.542 93.4 374.542 93.784C374.542 94.328 374.462 94.968 374.302 95.704C374.174 96.408 374.03 96.76 373.87 96.76C373.55 96.76 373.342 96.584 373.246 96.232C373.15 95.88 373.086 95.432 373.054 94.888C372.958 94.056 372.862 93.512 372.766 93.256C372.67 92.968 372.526 92.824 372.334 92.824C370.83 92.824 369.374 93.88 367.966 95.992C366.558 98.072 365.406 100.504 364.51 103.288C363.614 106.04 363.166 108.168 363.166 109.672C363.166 111.784 363.87 112.84 365.278 112.84C366.302 112.84 367.23 112.584 368.062 112.072C368.926 111.56 369.822 110.84 370.75 109.912C372.478 108.152 373.822 106.632 374.782 105.352C374.846 105.256 375.022 105.016 375.31 104.632C375.63 104.216 375.854 104.008 375.982 104.008C376.366 104.008 376.558 104.152 376.558 104.44ZM400.754 115.672C400.754 116.056 400.626 116.376 400.37 116.632C400.114 116.92 399.778 117.064 399.362 117.064C399.042 117.064 398.77 116.984 398.546 116.824C398.322 116.696 398.21 116.504 398.21 116.248L398.306 112.936C398.466 109 398.546 105.784 398.546 103.288C398.546 99.64 398.29 97.096 397.778 95.656C397.266 94.184 396.674 93.448 396.002 93.448C394.498 93.448 392.61 95.784 390.338 100.456C388.066 105.096 385.874 110.168 383.762 115.672C383.602 116.12 383.378 116.552 383.09 116.968C382.834 117.384 382.562 117.592 382.274 117.592C381.57 117.592 381.218 117.368 381.218 116.92C381.218 114.968 381.138 111.32 380.978 105.976C380.818 100.6 380.69 97.064 380.594 95.368C380.306 89.64 380.034 86.104 379.778 84.76C379.522 83.416 379.394 82.696 379.394 82.6C379.394 82.28 379.57 82.04 379.922 81.88C380.274 81.72 380.722 81.64 381.266 81.64C381.714 81.64 382.034 82.664 382.226 84.712C382.45 86.728 382.61 89.32 382.706 92.488L382.754 93.832C382.818 94.824 382.866 97.672 382.898 102.376C382.93 107.048 382.946 110.488 382.946 112.696C384.418 109.016 385.794 105.736 387.074 102.856C388.386 99.976 389.89 97.288 391.586 94.792C393.282 92.264 394.85 91 396.29 91C397.506 91 398.53 92.024 399.362 94.072C400.194 96.088 400.61 99.112 400.61 103.144C400.61 104.936 400.642 107.432 400.706 110.632L400.754 115.672ZM424.783 102.76C425.007 102.76 425.119 103 425.119 103.48C425.119 104.056 424.687 105.32 423.823 107.272C422.991 109.224 421.711 111.032 419.983 112.696C418.287 114.36 416.191 115.192 413.695 115.192C411.647 115.192 409.935 114.552 408.559 113.272C407.183 111.992 406.495 110.024 406.495 107.368C406.495 104.872 407.071 102.408 408.223 99.976C409.375 97.512 410.879 95.512 412.735 93.976C414.591 92.408 416.511 91.624 418.495 91.624C419.679 91.624 420.671 91.896 421.471 92.44C422.303 92.952 422.719 93.704 422.719 94.696C422.719 95.816 422.079 96.904 420.799 97.96C419.551 99.016 417.919 99.944 415.903 100.744C413.887 101.544 411.807 102.12 409.663 102.472C409.279 103.944 409.087 105.384 409.087 106.792C409.087 108.648 409.519 110.088 410.383 111.112C411.279 112.136 412.543 112.648 414.175 112.648C416.639 112.648 418.639 111.768 420.175 110.008C421.711 108.248 422.991 106.264 424.015 104.056C424.079 103.928 424.191 103.688 424.351 103.336C424.511 102.952 424.655 102.76 424.783 102.76ZM420.559 95.224C420.559 94.712 420.287 94.312 419.743 94.024C419.231 93.736 418.623 93.592 417.919 93.592C416.703 93.592 415.535 93.992 414.415 94.792C413.295 95.592 412.351 96.552 411.583 97.672C410.847 98.792 410.367 99.784 410.143 100.648C411.615 100.488 413.167 100.072 414.799 99.4C416.431 98.728 417.791 97.992 418.879 97.192C419.999 96.392 420.559 95.736 420.559 95.224ZM445.368 94.792C445.368 95.08 445.16 95.416 444.744 95.8C444.36 96.152 444.024 96.328 443.736 96.328C443.512 96.328 443.288 96.232 443.064 96.04C442.872 95.848 442.648 95.576 442.392 95.224C442.168 94.904 441.864 94.632 441.48 94.408C441.128 94.184 440.76 94.072 440.376 94.072C439.448 94.072 438.2 95.304 436.632 97.768C435.064 100.2 433.528 103.272 432.024 106.984C432.056 107.72 432.104 108.648 432.168 109.768C432.264 110.888 432.328 111.72 432.36 112.264L432.504 114.184C432.504 114.632 432.408 115.016 432.216 115.336C432.024 115.688 431.672 115.864 431.16 115.864C430.616 115.864 430.264 115.144 430.104 113.704C429.944 112.232 429.848 110.104 429.816 107.32C429.784 106.616 429.752 105.608 429.72 104.296C429.72 102.984 429.688 101.416 429.624 99.592C429.528 96.84 429.48 94.872 429.48 93.688C429.48 92.952 429.928 92.584 430.824 92.584C431.368 92.584 431.688 92.824 431.784 93.304C431.912 93.752 431.976 94.632 431.976 95.944V103.576C432.936 101.112 433.976 98.984 435.096 97.192C436.216 95.4 437.304 94.04 438.36 93.112C439.448 92.152 440.408 91.672 441.24 91.672C441.944 91.672 442.616 91.832 443.256 92.152C443.896 92.472 444.408 92.888 444.792 93.4C445.176 93.88 445.368 94.344 445.368 94.792ZM466.059 108.28C466.059 109.688 465.483 111.048 464.331 112.36C463.211 113.64 461.723 114.664 459.867 115.432C458.011 116.232 456.075 116.632 454.059 116.632C452.683 116.632 451.755 116.504 451.275 116.248C450.795 115.992 450.555 115.64 450.555 115.192C450.555 114.904 450.923 114.408 451.659 113.704C452.395 112.968 452.891 112.6 453.147 112.6C453.531 112.6 453.723 112.68 453.723 112.84C453.723 112.968 453.643 113.096 453.483 113.224C453.323 113.352 453.243 113.464 453.243 113.56C453.243 113.688 453.435 113.816 453.819 113.944C454.235 114.072 454.731 114.136 455.307 114.136C456.651 114.136 457.995 113.896 459.339 113.416C460.715 112.904 461.835 112.248 462.699 111.448C463.563 110.648 463.995 109.8 463.995 108.904C463.995 108.04 463.723 107.352 463.179 106.84C462.635 106.328 461.947 105.96 461.115 105.736C460.315 105.48 458.955 105.128 457.035 104.68C454.923 104.2 453.275 103.784 452.091 103.432C450.939 103.048 450.011 102.584 449.307 102.04C448.603 101.464 448.251 100.744 448.251 99.88C448.251 98.344 449.003 96.936 450.507 95.656C452.011 94.376 453.739 93.368 455.691 92.632C457.643 91.896 459.147 91.528 460.203 91.528C461.291 91.528 461.835 91.848 461.835 92.488C461.835 92.872 461.707 93.304 461.451 93.784C461.195 94.232 460.811 94.456 460.299 94.456C460.107 94.456 459.899 94.392 459.675 94.264C459.451 94.104 459.227 94.024 459.003 94.024C458.363 94.024 457.355 94.232 455.979 94.648C454.603 95.064 453.355 95.688 452.235 96.52C451.115 97.352 450.555 98.36 450.555 99.544C450.555 100.312 450.987 100.888 451.851 101.272C452.747 101.624 454.395 102.072 456.795 102.616C457.083 102.712 457.371 102.792 457.659 102.856C457.947 102.888 458.203 102.936 458.427 103C460.891 103.576 462.779 104.232 464.091 104.968C465.403 105.704 466.059 106.808 466.059 108.28Z" fill="#0366D6"/>
<path d="M3.29202 12.2797H40.3645C41.0668 12.2797 41.7403 12.5587 42.2369 13.0553C42.7335 13.5519 43.0125 14.2254 43.0125 14.9277V65.619C43.0128 65.8558 42.9496 66.0883 42.8295 66.2923C42.7094 66.4963 42.5368 66.6644 42.3297 66.7791C42.1226 66.8937 41.8885 66.9507 41.6518 66.9442C41.4152 66.9376 41.1846 66.8677 40.9841 66.7418L21.8283 54.7276L2.67238 66.7391C2.4721 66.865 2.24177 66.9348 2.00534 66.9415C1.76891 66.9482 1.53501 66.8914 1.32796 66.7771C1.1209 66.6627 0.948259 66.495 0.827975 66.2914C0.70769 66.0877 0.644158 65.8555 0.643982 65.619V14.9277C0.643982 14.2254 0.922971 13.5519 1.41957 13.0553C1.91618 12.5587 2.58971 12.2797 3.29202 12.2797ZM37.7165 17.5757H5.94005V58.4402L21.8283 48.4809L37.7165 58.4402V17.5757Z" fill="#444444"/>
</svg>
