<svg width="418" height="111" viewBox="0 0 418 111" fill="none" xmlns="http://www.w3.org/2000/svg">
<path d="M61.3759 62.2059V15.6605H78.8305C84.179 15.6605 88.2472 17.0317 91.035 19.7741C93.8381 22.5165 95.2396 26.1074 95.2396 30.5468C95.2396 33.7135 94.5275 36.4332 93.1032 38.7059C91.679 40.9787 89.6032 42.6605 86.8759 43.7514L96.9441 62.2059H87.535L78.3987 45.1605H69.8078V62.2059H61.3759ZM69.8078 38.1605H77.5805C80.7017 38.1605 82.9896 37.509 84.4441 36.2059C85.9138 34.9029 86.6487 33.0165 86.6487 30.5468C86.6487 28.062 85.9138 26.1377 84.4441 24.7741C82.9896 23.3953 80.6866 22.7059 77.535 22.7059H69.8078V38.1605ZM117.592 62.8878C114.092 62.8878 111.069 62.1529 108.524 60.6832C105.993 59.2135 104.046 57.1378 102.683 54.4559C101.319 51.7741 100.637 48.6074 100.637 44.9559C100.637 41.365 101.319 38.2135 102.683 35.5014C104.046 32.7741 105.963 30.6529 108.433 29.1377C110.918 27.6074 113.827 26.8423 117.16 26.8423C120.024 26.8423 122.668 27.4635 125.092 28.7059C127.516 29.9332 129.455 31.8499 130.91 34.4559C132.38 37.0468 133.115 40.3877 133.115 44.4787V47.0014H108.796C108.842 49.9862 109.668 52.312 111.274 53.9787C112.895 55.6453 115.039 56.4787 117.705 56.4787C119.478 56.4787 121.009 56.0999 122.296 55.3423C123.599 54.5696 124.531 53.4484 125.092 51.9787L132.774 52.8423C132.046 55.8726 130.349 58.3044 127.683 60.1378C125.031 61.9711 121.668 62.8878 117.592 62.8878ZM108.819 41.4559H125.228C125.213 39.0771 124.471 37.115 123.001 35.5696C121.546 34.0241 119.637 33.2514 117.274 33.2514C114.819 33.2514 112.827 34.062 111.296 35.6832C109.766 37.3044 108.94 39.2287 108.819 41.4559ZM140.075 62.2059V15.6605H148.302V41.3196H148.87L161.416 27.2968H171.029L157.507 42.365L171.825 62.2059H161.984L151.302 47.2741L148.302 50.4787V62.2059H140.075ZM193.944 27.2968V33.6605H187.058V51.7059C187.058 53.3574 187.421 54.4484 188.149 54.9787C188.876 55.4938 189.755 55.7514 190.785 55.7514C191.3 55.7514 191.77 55.7135 192.194 55.6378C192.634 55.562 192.967 55.4938 193.194 55.4332L194.58 61.865C194.141 62.0165 193.512 62.1832 192.694 62.365C191.891 62.5468 190.906 62.6529 189.74 62.6832C186.649 62.7741 184.05 62.0165 181.944 60.4105C179.853 58.8044 178.815 56.3574 178.83 53.0696V33.6605H173.876V27.2968H178.83V18.9332H187.058V27.2968H193.944ZM200.825 62.2059V27.2968H209.052V62.2059H200.825ZM204.961 22.3423C203.643 22.3423 202.514 21.9105 201.575 21.0468C200.651 20.1681 200.188 19.115 200.188 17.8877C200.188 16.6453 200.651 15.5923 201.575 14.7287C202.514 13.8499 203.643 13.4105 204.961 13.4105C206.264 13.4105 207.378 13.8499 208.302 14.7287C209.241 15.5923 209.711 16.6453 209.711 17.8877C209.711 19.115 209.241 20.1681 208.302 21.0468C207.378 21.9105 206.264 22.3423 204.961 22.3423ZM235.421 27.2968V33.6605H228.171V62.2059H219.944V33.6605H214.785V27.2968H219.944V24.0014C219.944 21.6529 220.429 19.6984 221.399 18.1377C222.384 16.5771 223.702 15.4105 225.353 14.6377C227.005 13.865 228.838 13.4787 230.853 13.4787C232.277 13.4787 233.543 13.5923 234.649 13.8196C235.755 14.0468 236.573 14.2514 237.103 14.4332L235.444 20.7968C235.111 20.6908 234.679 20.5847 234.149 20.4787C233.618 20.3574 233.027 20.2968 232.376 20.2968C230.846 20.2968 229.762 20.6681 229.126 21.4105C228.49 22.1377 228.171 23.1832 228.171 24.5468V27.2968H235.421ZM246.705 75.7968C245.509 75.7968 244.463 75.6908 243.569 75.4787C242.675 75.2665 241.993 75.062 241.524 74.865L243.433 68.2741C245.236 68.7893 246.743 68.8802 247.955 68.5468C249.183 68.2135 250.183 67.0847 250.955 65.1605L251.774 62.9332L239.115 27.2968H247.842L255.887 53.6605H256.251L264.319 27.2968H273.069L258.978 66.7514C258.009 69.4938 256.516 71.6832 254.501 73.3196C252.486 74.9711 249.887 75.7968 246.705 75.7968Z" fill="#444444"/>
<path d="M293.867 43.586C293.867 43.874 293.795 44.258 293.651 44.738C293.531 45.194 293.387 45.422 293.219 45.422C293.051 45.422 292.919 45.35 292.823 45.206C292.751 45.038 292.679 44.822 292.607 44.558C292.343 43.742 291.935 43.058 291.383 42.506C290.855 41.93 290.279 41.642 289.655 41.642C287.975 41.642 286.763 42.782 286.019 45.062C285.299 47.318 284.939 49.97 284.939 53.018C285.659 52.97 286.463 52.862 287.351 52.694C288.263 52.502 288.863 52.382 289.151 52.334C290.855 51.974 291.983 51.794 292.535 51.794C293.015 51.794 293.255 52.01 293.255 52.442C293.255 52.778 293.183 53.138 293.039 53.522C292.895 53.906 292.679 54.098 292.391 54.098C292.151 54.098 291.911 54.05 291.671 53.954C291.335 53.81 290.879 53.738 290.303 53.738C289.919 53.738 289.127 53.858 287.927 54.098L285.047 54.53C285.047 55.13 285.119 56.798 285.263 59.534C285.503 63.758 285.623 67.13 285.623 69.65C285.623 70.106 285.575 70.418 285.479 70.586C285.383 70.778 285.191 70.874 284.903 70.874C284.567 70.874 284.315 70.682 284.147 70.298C283.979 69.914 283.895 69.482 283.895 69.002C283.895 66.242 283.715 61.91 283.355 56.006L283.283 54.854C283.091 54.878 282.467 54.986 281.411 55.178C280.379 55.37 279.623 55.466 279.143 55.466C278.879 55.466 278.651 55.406 278.459 55.286C278.291 55.166 278.207 54.986 278.207 54.746C278.207 54.146 278.423 53.834 278.855 53.81C279.479 53.786 280.235 53.738 281.123 53.666C282.011 53.57 282.695 53.474 283.175 53.378C283.175 49.442 283.703 46.25 284.759 43.802C285.839 41.33 287.435 40.094 289.547 40.094C290.315 40.094 291.023 40.286 291.671 40.67C292.343 41.054 292.871 41.522 293.255 42.074C293.663 42.626 293.867 43.13 293.867 43.586ZM307.148 59.03C307.148 59.966 306.8 61.046 306.104 62.27C305.408 63.494 304.424 64.55 303.152 65.438C301.88 66.302 300.428 66.734 298.796 66.734C297.188 66.734 296 66.29 295.232 65.402C294.464 64.514 294.08 63.41 294.08 62.09C294.08 60.938 294.284 59.51 294.692 57.806C295.124 56.102 295.724 54.578 296.492 53.234C296.54 53.138 296.732 52.79 297.068 52.19C297.428 51.566 297.824 51.098 298.256 50.786C298.688 50.45 299.144 50.282 299.624 50.282C299.84 50.282 300.032 50.342 300.2 50.462C300.392 50.558 300.488 50.69 300.488 50.858C300.488 50.906 300.416 51.026 300.272 51.218C300.152 51.386 300.056 51.518 299.984 51.614C299.168 52.598 298.508 53.57 298.004 54.53C297.332 55.754 296.804 56.966 296.42 58.166C296.06 59.366 295.88 60.674 295.88 62.09C295.88 63.986 297.032 64.934 299.336 64.934C300.416 64.934 301.412 64.622 302.324 63.998C303.26 63.374 304.004 62.618 304.556 61.73C305.108 60.818 305.384 59.99 305.384 59.246C305.384 58.406 305.108 57.674 304.556 57.05C304.004 56.426 303.248 55.766 302.288 55.07C301.664 54.614 301.208 54.242 300.92 53.954C300.632 53.666 300.488 53.426 300.488 53.234C300.488 52.946 300.692 52.718 301.1 52.55C301.508 52.358 301.988 52.262 302.54 52.262C302.852 52.262 303.056 52.286 303.152 52.334C303.248 52.358 303.296 52.418 303.296 52.514C303.296 52.562 303.248 52.646 303.152 52.766C303.08 52.862 303.044 52.946 303.044 53.018C303.044 53.09 303.284 53.33 303.764 53.738C304.724 54.53 305.528 55.334 306.176 56.15C306.824 56.966 307.148 57.926 307.148 59.03ZM322.403 51.326C322.403 51.542 322.247 51.794 321.935 52.082C321.647 52.346 321.395 52.478 321.179 52.478C321.011 52.478 320.843 52.406 320.675 52.262C320.531 52.118 320.363 51.914 320.171 51.65C320.003 51.41 319.775 51.206 319.487 51.038C319.223 50.87 318.947 50.786 318.659 50.786C317.963 50.786 317.027 51.71 315.851 53.558C314.675 55.382 313.523 57.686 312.395 60.47C312.419 61.022 312.455 61.718 312.503 62.558C312.575 63.398 312.623 64.022 312.647 64.43L312.755 65.87C312.755 66.206 312.683 66.494 312.539 66.734C312.395 66.998 312.131 67.13 311.747 67.13C311.339 67.13 311.075 66.59 310.955 65.51C310.835 64.406 310.763 62.81 310.739 60.722C310.715 60.194 310.691 59.438 310.667 58.454C310.667 57.47 310.643 56.294 310.595 54.926C310.523 52.862 310.487 51.386 310.487 50.498C310.487 49.946 310.823 49.67 311.495 49.67C311.903 49.67 312.143 49.85 312.215 50.21C312.311 50.546 312.359 51.206 312.359 52.19V57.914C313.079 56.066 313.859 54.47 314.699 53.126C315.539 51.782 316.355 50.762 317.147 50.066C317.963 49.346 318.683 48.986 319.307 48.986C319.835 48.986 320.339 49.106 320.819 49.346C321.299 49.586 321.683 49.898 321.971 50.282C322.259 50.642 322.403 50.99 322.403 51.326ZM296.099 96.182C296.099 97.382 295.691 98.57 294.875 99.746C294.083 100.898 292.955 101.834 291.491 102.554C290.051 103.298 288.407 103.67 286.559 103.67C284.999 103.67 283.763 103.538 282.851 103.274C281.939 103.034 281.483 102.686 281.483 102.23C281.483 101.99 281.651 101.594 281.987 101.042C282.347 100.466 282.623 100.178 282.815 100.178C283.103 100.178 283.247 100.238 283.247 100.358C283.247 100.43 283.199 100.514 283.103 100.61C283.031 100.706 282.995 100.802 282.995 100.898C282.995 100.97 283.139 101.078 283.427 101.222C283.739 101.366 284.207 101.498 284.831 101.618C285.455 101.738 286.211 101.798 287.099 101.798C288.515 101.798 289.751 101.522 290.807 100.97C291.887 100.418 292.715 99.722 293.291 98.882C293.867 98.042 294.155 97.226 294.155 96.434C294.155 95.402 293.651 94.514 292.643 93.77C291.659 93.026 290.063 92.318 287.855 91.646C285.719 90.95 284.063 90.374 282.887 89.918C281.735 89.438 280.799 88.862 280.079 88.19C279.359 87.494 278.999 86.654 278.999 85.67C278.999 84.35 279.743 83.054 281.231 81.782C282.719 80.486 284.555 79.442 286.739 78.65C288.923 77.834 290.951 77.426 292.823 77.426C293.783 77.426 294.299 77.618 294.371 78.002C294.443 78.386 294.479 78.818 294.479 79.298C294.479 79.658 294.347 79.838 294.083 79.838C293.963 79.838 293.819 79.802 293.651 79.73C293.507 79.634 293.375 79.562 293.255 79.514C293.111 79.466 292.943 79.418 292.751 79.37C292.559 79.322 292.283 79.298 291.923 79.298C290.675 79.298 289.175 79.622 287.423 80.27C285.671 80.918 284.147 81.722 282.851 82.682C281.579 83.642 280.943 84.566 280.943 85.454C280.943 86.174 281.231 86.798 281.807 87.326C282.407 87.854 283.199 88.31 284.183 88.694C285.167 89.054 286.559 89.51 288.359 90.062C290.999 90.83 292.943 91.694 294.191 92.654C295.463 93.614 296.099 94.79 296.099 96.182ZM315.28 87.578C315.28 87.986 315.1 88.298 314.74 88.514C314.404 88.73 313.78 88.898 312.868 89.018C310.66 89.402 309.424 89.618 309.16 89.666L306.82 90.062C306.82 91.31 306.832 92.618 306.856 93.986C306.904 95.354 306.964 96.554 307.036 97.586C307.132 98.978 307.3 100.046 307.54 100.79C307.78 101.534 307.912 101.954 307.936 102.05C307.936 102.29 307.78 102.506 307.468 102.698C307.18 102.914 306.904 103.022 306.64 103.022C306.496 103.022 306.376 102.974 306.28 102.878C306.184 102.806 306.1 102.674 306.028 102.482C305.884 102.146 305.74 101.522 305.596 100.61C305.476 99.698 305.38 98.69 305.308 97.586C305.236 96.602 305.176 95.462 305.128 94.166C305.104 92.846 305.092 91.574 305.092 90.35C303.748 90.566 302.368 90.83 300.952 91.142C299.68 91.406 298.924 91.538 298.684 91.538C298.396 91.538 298.12 91.454 297.856 91.286C297.616 91.118 297.496 90.89 297.496 90.602C297.496 90.29 297.604 90.086 297.82 89.99C298.036 89.894 298.396 89.846 298.9 89.846C299.26 89.846 299.788 89.786 300.484 89.666C301.18 89.522 301.624 89.426 301.816 89.378C303.424 89.066 304.516 88.862 305.092 88.766C305.092 88.262 305.068 87.602 305.02 86.786C304.972 85.682 304.948 84.842 304.948 84.266C304.948 83.33 304.972 82.61 305.02 82.106C305.092 81.578 305.212 81.11 305.38 80.702C305.572 80.222 305.932 79.982 306.46 79.982C306.676 79.982 306.82 80.018 306.892 80.09C306.964 80.162 307 80.294 307 80.486C307 80.63 306.94 81.05 306.82 81.746C306.7 82.442 306.64 83.366 306.64 84.518C306.64 85.406 306.664 86.402 306.712 87.506L306.748 88.478C307.828 88.31 309.964 87.866 313.156 87.146C313.348 87.098 313.504 86.93 313.624 86.642C313.768 86.354 313.912 86.21 314.056 86.21C314.32 86.21 314.584 86.366 314.848 86.678C315.136 86.966 315.28 87.266 315.28 87.578ZM332.133 101.87C332.133 102.254 332.025 102.554 331.809 102.77C331.593 102.986 331.293 103.094 330.909 103.094C330.429 103.094 329.985 102.59 329.577 101.582C329.193 100.574 328.953 99.53 328.857 98.45C328.761 97.418 328.689 95.33 328.641 92.186C328.617 91.682 328.605 91.178 328.605 90.674C328.605 90.146 328.593 89.702 328.569 89.342C327.873 90.998 326.925 92.882 325.725 94.994C324.525 97.106 323.313 98.918 322.089 100.43C320.889 101.942 319.905 102.698 319.137 102.698C318.345 102.698 317.817 102.278 317.553 101.438C317.313 100.598 317.193 99.266 317.193 97.442C317.193 95.738 317.409 93.806 317.841 91.646C318.297 89.486 318.813 87.842 319.389 86.714C319.629 86.21 319.833 85.874 320.001 85.706C320.169 85.514 320.361 85.418 320.577 85.418C321.177 85.418 321.477 85.538 321.477 85.778C321.477 85.898 321.357 86.174 321.117 86.606C320.469 87.806 319.905 89.246 319.425 90.926C318.945 92.606 318.705 94.862 318.705 97.694C318.705 99.59 318.969 100.538 319.497 100.538C320.121 100.538 320.961 99.854 322.017 98.486C323.097 97.094 324.165 95.438 325.221 93.518C326.277 91.598 327.081 89.93 327.633 88.514C327.825 88.034 328.041 87.29 328.281 86.282C328.353 85.874 328.425 85.586 328.497 85.418C328.569 85.226 328.653 85.13 328.749 85.13C329.013 85.13 329.301 85.238 329.613 85.454C329.925 85.67 330.081 85.898 330.081 86.138C330.081 87.29 330.117 89.27 330.189 92.078C330.285 94.862 330.393 96.794 330.513 97.874C330.609 98.81 330.777 99.542 331.017 100.07C331.281 100.598 331.533 101.018 331.773 101.33C332.013 101.618 332.133 101.798 332.133 101.87ZM347.974 77.858C347.974 78.338 347.95 79.286 347.902 80.702C347.854 82.094 347.83 83.498 347.83 84.914C347.83 87.65 347.89 90.446 348.01 93.302C348.13 96.134 348.226 97.994 348.298 98.882C348.298 99.026 348.31 99.182 348.334 99.35C348.358 99.518 348.382 99.674 348.406 99.818C348.502 100.49 348.55 100.898 348.55 101.042C348.55 101.282 348.37 101.51 348.01 101.726C347.674 101.942 347.41 102.05 347.218 102.05C346.954 102.05 346.774 101.954 346.678 101.762C346.606 101.546 346.57 101.258 346.57 100.898C346.57 99.578 346.606 98.198 346.678 96.758L346.714 94.742C346.714 94.07 346.702 93.194 346.678 92.114C346.654 91.01 346.618 90.086 346.57 89.342C345.346 93.278 343.954 96.542 342.394 99.134C340.858 101.702 339.19 102.986 337.39 102.986C336.574 102.986 335.878 102.602 335.302 101.834C334.75 101.066 334.474 99.962 334.474 98.522C334.474 96.626 335.11 94.562 336.382 92.33C337.678 90.098 339.142 88.178 340.774 86.57C342.43 84.962 343.654 84.158 344.446 84.158C345.214 84.158 345.598 84.41 345.598 84.914C345.598 85.25 345.478 85.646 345.238 86.102C345.022 86.534 344.77 86.93 344.482 87.29C344.218 87.65 344.062 87.83 344.014 87.83C343.966 87.83 343.906 87.818 343.834 87.794C343.786 87.746 343.762 87.698 343.762 87.65C343.762 87.53 343.822 87.326 343.942 87.038C344.062 86.75 344.122 86.558 344.122 86.462C344.122 86.342 344.11 86.258 344.086 86.21C344.062 86.162 343.99 86.138 343.87 86.138C343.366 86.138 342.454 86.834 341.134 88.226C339.838 89.594 338.674 91.226 337.642 93.122C336.61 95.018 336.094 96.782 336.094 98.414C336.094 98.99 336.214 99.53 336.454 100.034C336.694 100.538 337.09 100.79 337.642 100.79C339.394 100.79 341.014 99.314 342.502 96.362C344.014 93.386 345.322 90.014 346.426 86.246L346.354 83.222C346.282 80.558 346.246 79.142 346.246 78.974C346.246 77.534 346.306 76.502 346.426 75.878C346.474 75.638 346.522 75.47 346.57 75.374C346.642 75.278 346.774 75.23 346.966 75.23C347.206 75.23 347.446 75.314 347.686 75.482C347.926 75.626 348.046 75.83 348.046 76.094L347.974 77.858ZM365.78 93.302C365.948 93.302 366.032 93.482 366.032 93.842C366.032 94.274 365.708 95.222 365.06 96.686C364.436 98.15 363.476 99.506 362.18 100.754C360.908 102.002 359.336 102.626 357.464 102.626C355.928 102.626 354.644 102.146 353.612 101.186C352.58 100.226 352.064 98.75 352.064 96.758C352.064 94.886 352.496 93.038 353.36 91.214C354.224 89.366 355.352 87.866 356.744 86.714C358.136 85.538 359.576 84.95 361.064 84.95C361.952 84.95 362.696 85.154 363.296 85.562C363.92 85.946 364.232 86.51 364.232 87.254C364.232 88.094 363.752 88.91 362.792 89.702C361.856 90.494 360.632 91.19 359.12 91.79C357.608 92.39 356.048 92.822 354.44 93.086C354.152 94.19 354.008 95.27 354.008 96.326C354.008 97.718 354.332 98.798 354.98 99.566C355.652 100.334 356.6 100.718 357.824 100.718C359.672 100.718 361.172 100.058 362.324 98.738C363.476 97.418 364.436 95.93 365.204 94.274C365.252 94.178 365.336 93.998 365.456 93.734C365.576 93.446 365.684 93.302 365.78 93.302ZM362.612 87.65C362.612 87.266 362.408 86.966 362 86.75C361.616 86.534 361.16 86.426 360.632 86.426C359.72 86.426 358.844 86.726 358.004 87.326C357.164 87.926 356.456 88.646 355.88 89.486C355.328 90.326 354.968 91.07 354.8 91.718C355.904 91.598 357.068 91.286 358.292 90.782C359.516 90.278 360.536 89.726 361.352 89.126C362.192 88.526 362.612 88.034 362.612 87.65ZM381.219 102.734C381.219 103.022 381.099 103.262 380.859 103.454C380.619 103.67 380.331 103.778 379.995 103.778C379.755 103.778 379.551 103.718 379.383 103.598C379.215 103.502 379.131 103.358 379.131 103.166C379.131 102.182 379.203 100.658 379.347 98.594C379.491 96.386 379.563 94.55 379.563 93.086C379.563 91.67 379.515 90.518 379.419 89.63C379.347 88.718 379.155 88.262 378.843 88.262C378.027 88.262 377.127 89.282 376.143 91.322C375.183 93.338 374.079 96.002 372.831 99.314L372.291 100.754C372.195 100.994 372.027 101.186 371.787 101.33C371.571 101.474 371.343 101.546 371.103 101.546C370.815 101.546 370.623 101.522 370.527 101.474C370.431 101.426 370.371 101.282 370.347 101.042L370.059 98.09L369.519 92.906C369.351 90.842 369.147 89.042 368.907 87.506C368.835 87.146 368.799 86.87 368.799 86.678C368.799 86.318 368.955 86.03 369.267 85.814C369.579 85.574 369.939 85.454 370.347 85.454C370.587 85.454 370.755 86.03 370.851 87.182C370.971 88.334 371.091 90.194 371.211 92.762L371.355 94.67C371.547 97.094 371.655 98.63 371.679 99.278C371.751 99.134 371.811 98.978 371.859 98.81C371.931 98.618 372.015 98.414 372.111 98.198C373.407 94.838 374.619 92.042 375.747 89.81C376.899 87.554 378.003 86.426 379.059 86.426C379.803 86.426 380.307 87.062 380.571 88.334C380.859 89.582 381.039 91.19 381.111 93.158C381.183 95.342 381.219 98.534 381.219 102.734ZM401.378 87.578C401.378 87.986 401.198 88.298 400.838 88.514C400.502 88.73 399.878 88.898 398.966 89.018C396.758 89.402 395.522 89.618 395.258 89.666L392.918 90.062C392.918 91.31 392.93 92.618 392.954 93.986C393.002 95.354 393.062 96.554 393.134 97.586C393.23 98.978 393.398 100.046 393.638 100.79C393.878 101.534 394.01 101.954 394.034 102.05C394.034 102.29 393.878 102.506 393.566 102.698C393.278 102.914 393.002 103.022 392.738 103.022C392.594 103.022 392.474 102.974 392.378 102.878C392.282 102.806 392.198 102.674 392.126 102.482C391.982 102.146 391.838 101.522 391.694 100.61C391.574 99.698 391.478 98.69 391.406 97.586C391.334 96.602 391.274 95.462 391.226 94.166C391.202 92.846 391.19 91.574 391.19 90.35C389.846 90.566 388.466 90.83 387.05 91.142C385.778 91.406 385.022 91.538 384.782 91.538C384.494 91.538 384.218 91.454 383.954 91.286C383.714 91.118 383.594 90.89 383.594 90.602C383.594 90.29 383.702 90.086 383.918 89.99C384.134 89.894 384.494 89.846 384.998 89.846C385.358 89.846 385.886 89.786 386.582 89.666C387.278 89.522 387.722 89.426 387.914 89.378C389.522 89.066 390.614 88.862 391.19 88.766C391.19 88.262 391.166 87.602 391.118 86.786C391.07 85.682 391.046 84.842 391.046 84.266C391.046 83.33 391.07 82.61 391.118 82.106C391.19 81.578 391.31 81.11 391.478 80.702C391.67 80.222 392.03 79.982 392.558 79.982C392.774 79.982 392.918 80.018 392.99 80.09C393.062 80.162 393.098 80.294 393.098 80.486C393.098 80.63 393.038 81.05 392.918 81.746C392.798 82.442 392.738 83.366 392.738 84.518C392.738 85.406 392.762 86.402 392.81 87.506L392.846 88.478C393.926 88.31 396.062 87.866 399.254 87.146C399.446 87.098 399.602 86.93 399.722 86.642C399.866 86.354 400.01 86.21 400.154 86.21C400.418 86.21 400.682 86.366 400.946 86.678C401.234 86.966 401.378 87.266 401.378 87.578ZM416.179 97.442C416.179 98.498 415.747 99.518 414.883 100.502C414.043 101.462 412.927 102.23 411.535 102.806C410.143 103.406 408.691 103.706 407.179 103.706C406.147 103.706 405.451 103.61 405.091 103.418C404.731 103.226 404.551 102.962 404.551 102.626C404.551 102.41 404.827 102.038 405.379 101.51C405.931 100.958 406.303 100.682 406.495 100.682C406.783 100.682 406.927 100.742 406.927 100.862C406.927 100.958 406.867 101.054 406.747 101.15C406.627 101.246 406.567 101.33 406.567 101.402C406.567 101.498 406.711 101.594 406.999 101.69C407.311 101.786 407.683 101.834 408.115 101.834C409.123 101.834 410.131 101.654 411.139 101.294C412.171 100.91 413.011 100.418 413.659 99.818C414.307 99.218 414.631 98.582 414.631 97.91C414.631 97.262 414.427 96.746 414.019 96.362C413.611 95.978 413.095 95.702 412.471 95.534C411.871 95.342 410.851 95.078 409.411 94.742C407.827 94.382 406.591 94.07 405.703 93.806C404.839 93.518 404.143 93.17 403.615 92.762C403.087 92.33 402.823 91.79 402.823 91.142C402.823 89.99 403.387 88.934 404.515 87.974C405.643 87.014 406.939 86.258 408.403 85.706C409.867 85.154 410.995 84.878 411.787 84.878C412.603 84.878 413.011 85.118 413.011 85.598C413.011 85.886 412.915 86.21 412.723 86.57C412.531 86.906 412.243 87.074 411.859 87.074C411.715 87.074 411.559 87.026 411.391 86.93C411.223 86.81 411.055 86.75 410.887 86.75C410.407 86.75 409.651 86.906 408.619 87.218C407.587 87.53 406.651 87.998 405.811 88.622C404.971 89.246 404.551 90.002 404.551 90.89C404.551 91.466 404.875 91.898 405.523 92.186C406.195 92.45 407.431 92.786 409.231 93.194C409.447 93.266 409.663 93.326 409.879 93.374C410.095 93.398 410.287 93.434 410.455 93.482C412.303 93.914 413.719 94.406 414.703 94.958C415.687 95.51 416.179 96.338 416.179 97.442Z" fill="#0366D6"/>
<path d="M2.94491 11.7617H40.0174C40.7197 11.7617 41.3932 12.0406 41.8898 12.5372C42.3864 13.0339 42.6654 13.7074 42.6654 14.4097V65.101C42.6657 65.3378 42.6025 65.5703 42.4824 65.7743C42.3623 65.9783 42.1897 66.1464 41.9826 66.2611C41.7755 66.3757 41.5414 66.4327 41.3047 66.4262C41.0681 66.4196 40.8375 66.3497 40.637 66.2238L21.4811 54.2096L2.32527 66.2211C2.12499 66.347 1.89467 66.4168 1.65823 66.4235C1.4218 66.4302 1.1879 66.3734 0.980849 66.2591C0.773796 66.1447 0.601152 65.977 0.480868 65.7733C0.360583 65.5697 0.297051 65.3375 0.296875 65.101V14.4097C0.296875 13.7074 0.575864 13.0339 1.07247 12.5372C1.56907 12.0406 2.24261 11.7617 2.94491 11.7617ZM37.3693 17.0577H5.59294V57.9222L21.4811 47.9629L37.3693 57.9222V17.0577Z" fill="#444444"/>
</svg>
