<svg width="44" height="55" viewBox="0 0 44 55" fill="none" xmlns="http://www.w3.org/2000/svg">
<path d="M3.29202 0.279663H40.3645C41.0668 0.279663 41.7403 0.558651 42.2369 1.05525C42.7335 1.55186 43.0125 2.22539 43.0125 2.9277V53.619C43.0128 53.8558 42.9496 54.0883 42.8295 54.2923C42.7094 54.4963 42.5368 54.6644 42.3297 54.7791C42.1226 54.8937 41.8885 54.9507 41.6518 54.9442C41.4152 54.9376 41.1846 54.8677 40.9841 54.7418L21.8283 42.7276L2.67238 54.7391C2.4721 54.865 2.24177 54.9348 2.00534 54.9415C1.76891 54.9482 1.53501 54.8914 1.32796 54.7771C1.1209 54.6627 0.948259 54.495 0.827975 54.2914C0.70769 54.0877 0.644158 53.8555 0.643982 53.619V2.9277C0.643982 2.22539 0.922971 1.55186 1.41957 1.05525C1.91618 0.558651 2.58971 0.279663 3.29202 0.279663ZM37.7165 5.57573H5.94005V46.4402L21.8283 36.4809L37.7165 46.4402V5.57573Z" fill="#444444"/>
</svg>
