<svg width="108" height="30" viewBox="0 0 108 30" fill="none" xmlns="http://www.w3.org/2000/svg">
<path d="M27.7155 23.5V6.04545H34.2609C36.2666 6.04545 37.7922 6.55966 38.8376 7.58807C39.8888 8.61648 40.4144 9.96307 40.4144 11.6278C40.4144 12.8153 40.1473 13.8352 39.6132 14.6875C39.0791 15.5398 38.3007 16.1705 37.278 16.5795L41.0536 23.5H37.5251L34.099 17.108H30.8774V23.5H27.7155ZM30.8774 14.483H33.7922C34.9626 14.483 35.8206 14.2386 36.3661 13.75C36.9172 13.2614 37.1928 12.554 37.1928 11.6278C37.1928 10.696 36.9172 9.97443 36.3661 9.46307C35.8206 8.94602 34.957 8.6875 33.7751 8.6875H30.8774V14.483ZM48.7965 23.7557C47.484 23.7557 46.3504 23.4801 45.3959 22.929C44.447 22.3778 43.7169 21.5994 43.2055 20.5938C42.6942 19.5881 42.4385 18.4006 42.4385 17.0312C42.4385 15.6847 42.6942 14.5028 43.2055 13.4858C43.7169 12.4631 44.4357 11.6676 45.3618 11.0994C46.2936 10.5256 47.3845 10.2386 48.6345 10.2386C49.7084 10.2386 50.6999 10.4716 51.609 10.9375C52.518 11.3977 53.2453 12.1165 53.7908 13.0938C54.3419 14.0653 54.6175 15.3182 54.6175 16.8523V17.7983H45.4982C45.5152 18.9176 45.8249 19.7898 46.4271 20.4148C47.0351 21.0398 47.8391 21.3523 48.8391 21.3523C49.5038 21.3523 50.0777 21.2102 50.5607 20.9261C51.0493 20.6364 51.3987 20.2159 51.609 19.6648L54.4896 19.9886C54.2169 21.125 53.5805 22.0369 52.5805 22.7244C51.5862 23.4119 50.3249 23.7557 48.7965 23.7557ZM45.5067 15.7188H51.6601C51.6544 14.8267 51.376 14.0909 50.8249 13.5114C50.2794 12.9318 49.5635 12.642 48.6771 12.642C47.7567 12.642 47.0095 12.946 46.4357 13.554C45.8618 14.1619 45.5521 14.8835 45.5067 15.7188ZM57.2276 23.5V6.04545H60.3128V15.6676H60.5259L65.2304 10.4091H68.8355L63.7645 16.0597L69.1338 23.5H65.4435L61.4378 17.9006L60.3128 19.1023V23.5H57.2276ZM77.4286 10.4091V12.7955H74.8462V19.5625C74.8462 20.1818 74.9825 20.5909 75.2553 20.7898C75.528 20.983 75.8575 21.0795 76.2439 21.0795C76.4371 21.0795 76.6132 21.0653 76.7723 21.0369C76.9371 21.0085 77.0621 20.983 77.1473 20.9602L77.6672 23.3722C77.5024 23.429 77.2666 23.4915 76.9598 23.5597C76.6587 23.6278 76.2894 23.6676 75.8519 23.679C74.6928 23.7131 73.7183 23.429 72.9286 22.8267C72.1445 22.2244 71.7553 21.3068 71.7609 20.0739V12.7955H69.903V10.4091H71.7609V7.27273H74.8462V10.4091H77.4286ZM80.0088 23.5V10.4091H83.094V23.5H80.0088ZM81.5599 8.55114C81.0656 8.55114 80.6423 8.3892 80.2901 8.06534C79.9435 7.73579 79.7702 7.34091 79.7702 6.88068C79.7702 6.41477 79.9435 6.01989 80.2901 5.69602C80.6423 5.36648 81.0656 5.2017 81.5599 5.2017C82.0486 5.2017 82.4662 5.36648 82.8128 5.69602C83.1651 6.01989 83.3412 6.41477 83.3412 6.88068C83.3412 7.34091 83.1651 7.73579 82.8128 8.06534C82.4662 8.3892 82.0486 8.55114 81.5599 8.55114ZM92.9825 10.4091V12.7955H90.2638V23.5H87.1786V12.7955H85.2439V10.4091H87.1786V9.17329C87.1786 8.29261 87.3604 7.55966 87.724 6.97443C88.0933 6.3892 88.5876 5.9517 89.207 5.66193C89.8263 5.37216 90.5138 5.22727 91.2695 5.22727C91.8036 5.22727 92.278 5.26989 92.6928 5.35511C93.1075 5.44034 93.4144 5.51705 93.6132 5.58523L92.9911 7.97159C92.8661 7.93182 92.7041 7.89204 92.5053 7.85227C92.3064 7.80682 92.0848 7.78409 91.8405 7.78409C91.2666 7.78409 90.8604 7.9233 90.6217 8.2017C90.3831 8.47443 90.2638 8.86648 90.2638 9.37784V10.4091H92.9825ZM97.2141 28.5966C96.7652 28.5966 96.3732 28.5568 96.0379 28.4773C95.7027 28.3977 95.447 28.321 95.2709 28.2472L95.9868 25.7756C96.6629 25.9688 97.2283 26.0028 97.6828 25.8778C98.143 25.7528 98.518 25.3295 98.8078 24.608L99.1146 23.7727L94.3675 10.4091H97.6402L100.657 20.2955H100.794L103.819 10.4091H107.1L101.816 25.2045C101.453 26.233 100.893 27.054 100.137 27.6676C99.3817 28.2869 98.4072 28.5966 97.2141 28.5966Z" fill="white"/>
<path d="M1.54576 4.30283H16.1864C16.4638 4.30283 16.7298 4.413 16.9259 4.60912C17.122 4.80524 17.2322 5.07123 17.2322 5.34859V25.3676C17.2323 25.4611 17.2074 25.5529 17.1599 25.6335C17.1125 25.7141 17.0443 25.7805 16.9625 25.8257C16.8807 25.871 16.7883 25.8935 16.6948 25.891C16.6014 25.8884 16.5103 25.8608 16.4311 25.811L8.8661 21.0664L1.30105 25.81C1.22196 25.8597 1.131 25.8873 1.03763 25.8899C0.944257 25.8925 0.851885 25.8701 0.770115 25.825C0.688346 25.7798 0.620165 25.7136 0.572662 25.6331C0.52516 25.5527 0.50007 25.461 0.5 25.3676V5.34859C0.5 5.07123 0.610178 4.80524 0.806297 4.60912C1.00242 4.413 1.26841 4.30283 1.54576 4.30283ZM15.1407 6.39435H2.59152V22.5326L8.8661 18.5994L15.1407 22.5326V6.39435Z" fill="white"/>
</svg>
