<svg width="63" height="20" viewBox="0 0 63 20" fill="none" xmlns="http://www.w3.org/2000/svg">
<path d="M59.1674 9.65178L53.5398 15.2794L55.1474 16.887L62.3826 9.65178L55.1474 2.41656L53.5398 4.02414L59.1674 9.65178Z" fill="#444444"/>
<path d="M5.96777 10.5502H3.2959V15.1518H1.78809V3.77679H5.55371C6.83496 3.77679 7.81934 4.06846 8.50684 4.65179C9.19954 5.23513 9.5459 6.08409 9.5459 7.19867C9.5459 7.907 9.35319 8.52419 8.96777 9.05023C8.58757 9.57627 8.05632 9.9695 7.37402 10.2299L10.0459 15.058V15.1518H8.43652L5.96777 10.5502ZM3.2959 9.32367H5.60059C6.34538 9.32367 6.93652 9.13096 7.37402 8.74554C7.81673 8.36013 8.03809 7.8445 8.03809 7.19867C8.03809 6.49554 7.82715 5.95648 7.40527 5.58148C6.98861 5.20648 6.38444 5.01638 5.59277 5.01117H3.2959V9.32367ZM14.9365 15.308C13.7907 15.308 12.8584 14.933 12.1396 14.183C11.4209 13.4278 11.0615 12.42 11.0615 11.1596V10.894C11.0615 10.0554 11.2204 9.30804 11.5381 8.65179C11.861 7.99034 12.3089 7.47471 12.8818 7.10492C13.46 6.72992 14.085 6.54242 14.7568 6.54242C15.8558 6.54242 16.71 6.9044 17.3193 7.62836C17.9287 8.35232 18.2334 9.38877 18.2334 10.7377V11.3393H12.5068C12.5277 12.1726 12.7699 12.8471 13.2334 13.3627C13.7021 13.8731 14.2959 14.1284 15.0146 14.1284C15.5251 14.1284 15.9574 14.0242 16.3115 13.8159C16.6657 13.6075 16.9756 13.3315 17.2412 12.9877L18.124 13.6752C17.4157 14.7638 16.3532 15.308 14.9365 15.308ZM14.7568 7.72992C14.1735 7.72992 13.6839 7.94346 13.2881 8.37054C12.8923 8.79242 12.6475 9.38617 12.5537 10.1518H16.7881V10.0424C16.7464 9.30804 16.5485 8.74034 16.1943 8.33929C15.8402 7.93304 15.361 7.72992 14.7568 7.72992ZM21.874 4.65179V6.69867H23.4521V7.81586H21.874V13.058C21.874 13.3966 21.9443 13.6518 22.085 13.8237C22.2256 13.9903 22.4652 14.0737 22.8037 14.0737C22.9704 14.0737 23.1995 14.0424 23.4912 13.9799V15.1518C23.111 15.256 22.7412 15.308 22.3818 15.308C21.736 15.308 21.249 15.1127 20.9209 14.7221C20.5928 14.3315 20.4287 13.7768 20.4287 13.058V7.81586H18.8896V6.69867H20.4287V4.65179H21.874ZM30.3662 14.3159C29.8037 14.9773 28.9782 15.308 27.8896 15.308C26.9886 15.308 26.3011 15.0476 25.8271 14.5268C25.3584 14.0008 25.1214 13.2247 25.1162 12.1987V6.69867H26.5615V12.1596C26.5615 13.4409 27.0824 14.0815 28.124 14.0815C29.2282 14.0815 29.9626 13.67 30.3271 12.8471V6.69867H31.7725V15.1518H30.3975L30.3662 14.3159ZM38.0615 7.99554C37.8428 7.95909 37.6058 7.94086 37.3506 7.94086C36.4027 7.94086 35.7594 8.3445 35.4209 9.15179V15.1518H33.9756V6.69867H35.3818L35.4053 7.67523C35.8792 6.92002 36.5511 6.54242 37.4209 6.54242C37.7021 6.54242 37.9157 6.57888 38.0615 6.65179V7.99554ZM40.7646 6.69867L40.8115 7.76117C41.4574 6.94867 42.3011 6.54242 43.3428 6.54242C45.1292 6.54242 46.0303 7.55023 46.0459 9.56586V15.1518H44.6006V9.55804C44.5954 8.94867 44.4548 8.49815 44.1787 8.20648C43.9079 7.91482 43.4834 7.76898 42.9053 7.76898C42.4365 7.76898 42.0251 7.89398 41.6709 8.14398C41.3167 8.39398 41.0407 8.72211 40.8428 9.12836V15.1518H39.3975V6.69867H40.7646Z" fill="#444444"/>
</svg>
