<svg width="65" height="20" viewBox="0 0 65 20" fill="none" xmlns="http://www.w3.org/2000/svg">
<path d="M3.06398 10.25L8.31421 15.5002L6.81445 17L0.0644531 10.25L6.81445 3.5L8.31421 4.99976L3.06398 10.25Z" fill="black"/>
<path d="M23.2422 11.1484H20.5703V15.75H19.0625V4.375H22.8281C24.1094 4.375 25.0938 4.66667 25.7812 5.25C26.474 5.83333 26.8203 6.68229 26.8203 7.79688C26.8203 8.50521 26.6276 9.1224 26.2422 9.64844C25.862 10.1745 25.3307 10.5677 24.6484 10.8281L27.3203 15.6562V15.75H25.7109L23.2422 11.1484ZM20.5703 9.92188H22.875C23.6198 9.92188 24.2109 9.72917 24.6484 9.34375C25.0911 8.95833 25.3125 8.44271 25.3125 7.79688C25.3125 7.09375 25.1016 6.55469 24.6797 6.17969C24.263 5.80469 23.6589 5.61458 22.8672 5.60938H20.5703V9.92188ZM32.2109 15.9062C31.0651 15.9062 30.1328 15.5312 29.4141 14.7812C28.6953 14.026 28.3359 13.0182 28.3359 11.7578V11.4922C28.3359 10.6536 28.4948 9.90625 28.8125 9.25C29.1354 8.58854 29.5833 8.07292 30.1562 7.70312C30.7344 7.32812 31.3594 7.14062 32.0312 7.14062C33.1302 7.14062 33.9844 7.5026 34.5938 8.22656C35.2031 8.95052 35.5078 9.98698 35.5078 11.3359V11.9375H29.7812C29.8021 12.7708 30.0443 13.4453 30.5078 13.9609C30.9766 14.4714 31.5703 14.7266 32.2891 14.7266C32.7995 14.7266 33.2318 14.6224 33.5859 14.4141C33.9401 14.2057 34.25 13.9297 34.5156 13.5859L35.3984 14.2734C34.6901 15.362 33.6276 15.9062 32.2109 15.9062ZM32.0312 8.32812C31.4479 8.32812 30.9583 8.54167 30.5625 8.96875C30.1667 9.39062 29.9219 9.98438 29.8281 10.75H34.0625V10.6406C34.0208 9.90625 33.8229 9.33854 33.4688 8.9375C33.1146 8.53125 32.6354 8.32812 32.0312 8.32812ZM39.1484 5.25V7.29688H40.7266V8.41406H39.1484V13.6562C39.1484 13.9948 39.2188 14.25 39.3594 14.4219C39.5 14.5885 39.7396 14.6719 40.0781 14.6719C40.2448 14.6719 40.474 14.6406 40.7656 14.5781V15.75C40.3854 15.8542 40.0156 15.9062 39.6562 15.9062C39.0104 15.9062 38.5234 15.7109 38.1953 15.3203C37.8672 14.9297 37.7031 14.375 37.7031 13.6562V8.41406H36.1641V7.29688H37.7031V5.25H39.1484ZM47.6406 14.9141C47.0781 15.5755 46.2526 15.9062 45.1641 15.9062C44.263 15.9062 43.5755 15.6458 43.1016 15.125C42.6328 14.599 42.3958 13.8229 42.3906 12.7969V7.29688H43.8359V12.7578C43.8359 14.0391 44.3568 14.6797 45.3984 14.6797C46.5026 14.6797 47.237 14.2682 47.6016 13.4453V7.29688H49.0469V15.75H47.6719L47.6406 14.9141ZM55.3359 8.59375C55.1172 8.55729 54.8802 8.53906 54.625 8.53906C53.6771 8.53906 53.0339 8.94271 52.6953 9.75V15.75H51.25V7.29688H52.6562L52.6797 8.27344C53.1536 7.51823 53.8255 7.14062 54.6953 7.14062C54.9766 7.14062 55.1901 7.17708 55.3359 7.25V8.59375ZM58.0391 7.29688L58.0859 8.35938C58.7318 7.54688 59.5755 7.14062 60.6172 7.14062C62.4036 7.14062 63.3047 8.14844 63.3203 10.1641V15.75H61.875V10.1562C61.8698 9.54688 61.7292 9.09635 61.4531 8.80469C61.1823 8.51302 60.7578 8.36719 60.1797 8.36719C59.7109 8.36719 59.2995 8.49219 58.9453 8.74219C58.5911 8.99219 58.3151 9.32031 58.1172 9.72656V15.75H56.6719V7.29688H58.0391Z" fill="black"/>
</svg>
