<svg width="14" height="14" viewBox="0 0 14 14" fill="none" xmlns="http://www.w3.org/2000/svg">
<path d="M10.8392 9.98374L13.5161 12.66L12.6317 13.5444L9.95545 10.8675C8.95966 11.6658 7.72107 12.0999 6.44482 12.0981C3.33982 12.0981 0.819824 9.57811 0.819824 6.47311C0.819824 3.36811 3.33982 0.848114 6.44482 0.848114C9.54982 0.848114 12.0698 3.36811 12.0698 6.47311C12.0716 7.74936 11.6375 8.98795 10.8392 9.98374ZM9.58545 9.51999C10.3786 8.70429 10.8216 7.61088 10.8198 6.47311C10.8198 4.05561 8.8617 2.09811 6.44482 2.09811C4.02732 2.09811 2.06982 4.05561 2.06982 6.47311C2.06982 8.88999 4.02732 10.8481 6.44482 10.8481C7.58259 10.8499 8.676 10.4069 9.4917 9.61374L9.58545 9.51999Z" fill="#C4C4C4"/>
</svg>
