<svg width="95" height="33" viewBox="0 0 95 33" fill="none" xmlns="http://www.w3.org/2000/svg">
<rect y="0.508057" width="95" height="32.4658" rx="16.2329" fill="#2C974B"/>
<path d="M51.1719 14.2339C51.1188 13.7632 50.9001 13.3986 50.5156 13.1401C50.1312 12.8783 49.6473 12.7474 49.0639 12.7474C48.4375 12.7474 47.9403 12.8899 47.5724 13.1749C47.2045 13.46 47.0206 13.8196 47.0206 14.2538C47.0206 14.5786 47.1184 14.8437 47.3139 15.0492C47.5128 15.2514 47.7547 15.4105 48.0398 15.5265C48.3281 15.6425 48.6049 15.7353 48.87 15.8049L49.8643 16.0634C50.1892 16.143 50.5223 16.2523 50.8636 16.3915C51.205 16.5274 51.5215 16.7064 51.8132 16.9285C52.1049 17.1472 52.3402 17.4207 52.5192 17.7488C52.7015 18.0769 52.7926 18.4697 52.7926 18.927C52.7926 19.5004 52.6435 20.0125 52.3452 20.4633C52.0502 20.914 51.6226 21.2687 51.0625 21.5272C50.5024 21.7824 49.8229 21.91 49.0241 21.91C47.884 21.91 46.9759 21.6432 46.2997 21.1096C45.6269 20.576 45.2656 19.8484 45.2159 18.927H46.7571C46.8035 19.4806 47.0438 19.8915 47.478 20.16C47.9122 20.4285 48.4242 20.5627 49.0142 20.5627C49.6671 20.5627 50.2057 20.4119 50.63 20.1103C51.0575 19.8087 51.2713 19.4093 51.2713 18.9121C51.2713 18.6105 51.1851 18.3636 51.0128 18.1714C50.8438 17.9758 50.6134 17.8167 50.3217 17.6941C50.0334 17.5681 49.7069 17.4571 49.3423 17.361L48.1392 17.0329C47.3205 16.8108 46.6742 16.4843 46.2003 16.0535C45.7263 15.6226 45.4893 15.0525 45.4893 14.3432C45.4893 13.7566 45.6484 13.2445 45.9666 12.807C46.2848 12.3695 46.7157 12.0298 47.2592 11.7878C47.8061 11.5426 48.4193 11.4199 49.0987 11.4199C49.7881 11.4199 50.3963 11.5409 50.9233 11.7829C51.4536 12.0248 51.8712 12.3579 52.1761 12.7822C52.4811 13.2064 52.6402 13.6903 52.6534 14.2339H51.1719ZM57.8002 21.8951C57.0512 21.8951 56.4049 21.7327 55.8613 21.4079C55.3178 21.0831 54.8985 20.6273 54.6035 20.0407C54.3118 19.4507 54.166 18.7613 54.166 17.9725C54.166 17.1903 54.3118 16.5009 54.6035 15.9043C54.8985 15.3077 55.3095 14.8421 55.8365 14.5073C56.3668 14.1725 56.9866 14.0052 57.6958 14.0052C58.2725 14.0052 58.8178 14.1344 59.3315 14.393C59.8485 14.6482 60.2678 15.0575 60.5893 15.6209C60.9141 16.1811 61.0765 16.9218 61.0765 17.8432V18.3702H55.6475C55.6674 19.106 55.8746 19.6728 56.269 20.0705C56.6634 20.4682 57.1788 20.6671 57.8152 20.6671C58.2394 20.6671 58.6056 20.576 58.9139 20.3937C59.2221 20.2114 59.4425 19.9396 59.5751 19.5783L60.9821 19.8319C60.813 20.4517 60.4484 20.9505 59.8883 21.3283C59.3282 21.7062 58.6322 21.8951 57.8002 21.8951ZM55.6525 17.2566H59.6199C59.6165 16.6733 59.4409 16.191 59.0929 15.8099C58.7449 15.4254 58.2825 15.2332 57.7058 15.2332C57.3047 15.2332 56.9534 15.3276 56.6518 15.5165C56.3535 15.7021 56.1165 15.9491 55.9409 16.2573C55.7685 16.5622 55.6724 16.8953 55.6525 17.2566ZM64.2124 17.2069V21.741H62.7259V14.1046H64.1527V15.3475H64.2472C64.4228 14.9431 64.6979 14.6183 65.0724 14.3731C65.4503 14.1278 65.9259 14.0052 66.4993 14.0052C67.2815 14.0052 67.9096 14.2488 68.3835 14.736C68.8608 15.2232 69.0994 15.9391 69.0994 16.8837V21.741H67.6129V17.0627C67.6129 16.5092 67.4688 16.0767 67.1804 15.7651C66.892 15.4502 66.496 15.2928 65.9922 15.2928C65.4751 15.2928 65.0492 15.4602 64.7145 15.7949C64.3797 16.1264 64.2124 16.597 64.2124 17.2069ZM73.9517 21.8901C73.3352 21.8901 72.7867 21.7327 72.3061 21.4178C71.8255 21.1029 71.4477 20.6505 71.1726 20.0606C70.8975 19.4673 70.7599 18.7597 70.7599 17.9377C70.7599 17.1124 70.8975 16.4064 71.1726 15.8198C71.451 15.2332 71.8321 14.7841 72.3161 14.4725C72.8 14.1609 73.3485 14.0052 73.9616 14.0052C74.4356 14.0052 74.8168 14.0847 75.1051 14.2438C75.3968 14.3996 75.6222 14.5819 75.7812 14.7907C75.9437 14.9995 76.0696 15.1834 76.1591 15.3425H76.2486V11.5591H77.7351V21.741H76.2834V20.5528H76.1591C76.0696 20.7152 75.9403 20.9008 75.7713 21.1096C75.6056 21.3184 75.3769 21.5007 75.0852 21.6564C74.7936 21.8122 74.4157 21.8901 73.9517 21.8901ZM74.2798 20.6224C74.9228 20.6224 75.415 20.3738 75.7564 19.8766C76.1011 19.3761 76.2734 18.7249 76.2734 17.9228C76.2734 17.124 76.1027 16.4827 75.7614 15.9988C75.4233 15.5116 74.9295 15.268 74.2798 15.268C73.8324 15.268 73.4595 15.384 73.1612 15.616C72.8629 15.848 72.6375 16.1645 72.4851 16.5655C72.3359 16.9633 72.2614 17.4157 72.2614 17.9228C72.2614 18.4332 72.3376 18.8922 72.4901 19.2999C72.6425 19.7076 72.8679 20.0307 73.1662 20.2694C73.4678 20.5047 73.839 20.6224 74.2798 20.6224Z" fill="white"/>
<g clip-path="url(#clip0)">
<path d="M19.2211 8.91179C19.0072 8.48404 19.1769 8.30827 19.6169 8.52829L35.2574 16.3489C35.6907 16.5658 35.695 16.934 35.2857 17.1613L20.2038 25.5393C19.7865 25.7723 19.588 25.5959 19.7589 25.1497L22.5208 17.9701L31.125 16.741L22.5208 15.5118L19.2211 8.91179Z" fill="white"/>
</g>
<defs>
<clipPath id="clip0">
<rect width="20.8597" height="20.8597" fill="white" transform="translate(23.75 1.99097) rotate(45)"/>
</clipPath>
</defs>
</svg>
