<svg width="378" height="377" viewBox="0 0 378 377" fill="none" xmlns="http://www.w3.org/2000/svg">
<path d="M245.957 42.6085C245.957 42.6085 190.501 22.8914 136.062 54.288C81.6231 85.6845 54.1549 148.003 30.5698 197.925C6.98467 247.847 20.5567 298.622 62.1171 321.777C103.678 344.932 131.93 310.799 190.222 309.14C248.513 307.481 264.197 315.813 312.573 282.878C360.95 249.943 369.689 172.168 331.529 114.608C293.369 57.0476 245.957 42.6085 245.957 42.6085Z" fill="#90CAF9"/>
<path opacity="0.7" d="M245.957 42.6085C245.957 42.6085 190.501 22.8914 136.062 54.288C81.6231 85.6845 54.1549 148.003 30.5698 197.925C6.98467 247.847 20.5567 298.622 62.1171 321.777C103.678 344.932 131.93 310.799 190.222 309.14C248.513 307.481 264.197 315.813 312.573 282.878C360.95 249.943 369.689 172.168 331.529 114.608C293.369 57.0476 245.957 42.6085 245.957 42.6085Z" fill="white"/>
<path d="M25.3973 223.938H364.313" stroke="#263238" stroke-width="0.950299" stroke-linecap="round" stroke-linejoin="round"/>
<path d="M25.3973 228.952H364.313" stroke="#263238" stroke-width="0.950299" stroke-linecap="round" stroke-linejoin="round"/>
<path d="M282.677 36.9234H28.3078V193.13H282.677V36.9234Z" stroke="#263238" stroke-width="0.950299" stroke-linecap="round" stroke-linejoin="round"/>
<path d="M282.677 184.903H28.3078V193.122H282.677V184.903Z" fill="#969696" stroke="#263238" stroke-width="0.950299" stroke-linecap="round" stroke-linejoin="round"/>
<path d="M282.677 193.039H28.3078V198.302H282.677V193.039Z" fill="#263238" stroke="#263238" stroke-width="0.950299" stroke-miterlimit="10"/>
<path d="M251.605 134.106C251.605 134.106 248.762 133.865 242.263 126.235C235.763 118.604 241.275 105.485 253.716 104.806C266.157 104.127 272.566 117.209 268.577 124.84C264.589 132.47 258.248 134.86 258.248 134.86" stroke="#263238" stroke-width="0.950299" stroke-linecap="round" stroke-linejoin="round"/>
<path d="M260.562 136.014C260.562 136.014 247.744 135.539 248.838 136.768C249.931 137.997 262.87 137.484 259.952 138.434C257.034 139.384 246.38 138.434 250.082 140.108C253.784 141.782 262.99 139.626 261.03 140.583C259.069 141.541 249.305 141.3 252.087 142.732" stroke="#263238" stroke-width="0.950299" stroke-linecap="round" stroke-linejoin="round"/>
<path d="M254.802 132.433C254.802 132.433 250.813 122.631 249.305 119.796C247.797 116.96 245.58 113.854 245.897 117.172C246.214 120.489 249.064 120.271 251.612 117.413C254.161 114.555 250.919 112.64 250.708 116.455C250.496 120.271 254.078 120.271 255.186 117.413C256.295 114.555 253.942 114.073 254.236 117.413C254.53 120.753 257.192 120.037 258.006 117.647C258.821 115.256 257.32 112.881 257.117 116.455C256.913 120.029 258.089 120.512 260.035 119.796C261.98 119.079 262.5 114.073 260.909 116.93C259.318 119.788 255.767 132.199 255.767 132.199" stroke="#263238" stroke-width="0.950299" stroke-linecap="round" stroke-linejoin="round"/>
<path d="M253.942 96.4215L253.648 101.669" stroke="#263238" stroke-width="0.950299" stroke-linecap="round" stroke-linejoin="round"/>
<path d="M235.205 103.102L241.66 107.158" stroke="#263238" stroke-width="0.950299" stroke-linecap="round" stroke-linejoin="round"/>
<path d="M233.056 124.568L236.924 123.611" stroke="#263238" stroke-width="0.950299" stroke-linecap="round" stroke-linejoin="round"/>
<path d="M269.188 109.541L273.486 105.251" stroke="#263238" stroke-width="0.950299" stroke-linecap="round" stroke-linejoin="round"/>
<path d="M270.756 124.327L276.675 125.043" stroke="#263238" stroke-width="0.950299" stroke-linecap="round" stroke-linejoin="round"/>
<path d="M200.619 74.8119L198.071 56.5274L206.576 54.8233" stroke="#263238" stroke-width="0.950299" stroke-linecap="round" stroke-linejoin="round"/>
<path d="M198.923 64.1805L206.154 61.6244" stroke="#263238" stroke-width="0.950299" stroke-linecap="round" stroke-linejoin="round"/>
<path d="M211.681 64.6027L221.46 63.7507" stroke="#263238" stroke-width="0.950299" stroke-linecap="round" stroke-linejoin="round"/>
<path d="M211.681 68.433L220.608 67.1512" stroke="#263238" stroke-width="0.950299" stroke-linecap="round" stroke-linejoin="round"/>
<path d="M201.471 78.2124L226.987 75.2341" stroke="#263238" stroke-width="0.950299" stroke-linecap="round" stroke-linejoin="round"/>
<path d="M235.914 55.2456C235.914 55.2456 234.218 51.0006 232.514 54.8233C230.81 58.6461 230.81 65.025 232.936 62.4764C234.302 60.7861 235.447 58.9289 236.344 56.9496L234.64 74.8043" stroke="#263238" stroke-width="0.950299" stroke-linecap="round" stroke-linejoin="round"/>
<path d="M244.842 54.4011C244.842 54.4011 243.145 50.1485 241.441 53.9713C239.737 57.7941 239.744 64.1805 241.871 61.6244C243.236 59.9352 244.379 58.0778 245.271 56.0976L243.567 73.9599" stroke="#263238" stroke-width="0.950299" stroke-linecap="round" stroke-linejoin="round"/>
<path d="M249.946 58.2239C249.946 58.2239 247.82 59.9279 248.242 58.2239C248.664 56.5198 250.64 54.9968 251.65 57.8016C252.608 60.4633 252.495 66.3068 249.524 66.3068C246.553 66.3068 248.672 63.2908 255.051 64.6027" stroke="#263238" stroke-width="0.950299" stroke-linecap="round" stroke-linejoin="round"/>
<path d="M261.859 72.9646C261.859 72.9646 260.412 74.1182 260.706 72.9646C261 71.811 262.327 70.778 263.013 72.6781C263.699 74.5781 263.593 78.4537 261.573 78.4537C259.552 78.4537 260.992 76.433 265.343 77.3001" stroke="#263238" stroke-width="0.950299" stroke-linecap="round" stroke-linejoin="round"/>
<path d="M231.239 77.7826L258.873 73.9599" stroke="#263238" stroke-width="0.950299" stroke-linecap="round" stroke-linejoin="round"/>
<path d="M236.336 79.4867L234.64 86.2877H240.167" stroke="#263238" stroke-width="0.950299" stroke-linecap="round" stroke-linejoin="round"/>
<path d="M241.871 80.7609L239.315 90.9625" stroke="#263238" stroke-width="0.950299" stroke-linecap="round" stroke-linejoin="round"/>
<path d="M242.715 85.4357L249.441 84.1162" stroke="#263238" stroke-width="0.950299" stroke-linecap="round" stroke-linejoin="round"/>
<path d="M243.733 90.5403C243.854 90.1859 244.804 85.1869 244.804 85.1869" stroke="#263238" stroke-width="0.950299" stroke-linecap="round" stroke-linejoin="round"/>
<path d="M247.541 84.4706L246.229 90.7816" stroke="#263238" stroke-width="0.950299" stroke-linecap="round" stroke-linejoin="round"/>
<path d="M256.875 78.1898C256.875 78.1898 252.608 78.8458 252.939 80.4518C253.271 82.0578 255.888 82.0955 255.888 82.0955C255.888 82.0955 249.328 84.3575 250.964 88.6628C252.6 92.9682 257.863 87.3433 257.863 87.3433" stroke="#263238" stroke-width="0.950299" stroke-linecap="round" stroke-linejoin="round"/>
<path d="M261.143 82.7892C261.143 82.7892 260.163 91.9805 259.831 88.7006C259.499 85.4207 262.455 82.4574 263.443 83.1134" stroke="#263238" stroke-width="0.950299" stroke-linecap="round" stroke-linejoin="round"/>
<path d="M192.152 121.952L179.259 131.98L180.209 150.612L194.067 158.257L206.961 148.704L205.528 130.073L192.152 121.952Z" stroke="#263238" stroke-width="0.950299" stroke-linecap="round" stroke-linejoin="round"/>
<path d="M191.677 116.222V126.725" stroke="#263238" stroke-width="0.950299" stroke-linecap="round" stroke-linejoin="round"/>
<path d="M206.01 137.711H211.258" stroke="#263238" stroke-width="0.950299" stroke-linecap="round" stroke-linejoin="round"/>
<path d="M174.478 141.058L182.124 140.101" stroke="#263238" stroke-width="0.950299" stroke-linecap="round" stroke-linejoin="round"/>
<path d="M194.067 155.867V164.462" stroke="#263238" stroke-width="0.950299" stroke-linecap="round" stroke-linejoin="round"/>
<path d="M192.152 107.385C192.152 110.152 190.976 112.399 189.528 112.399C188.08 112.399 186.897 110.137 186.897 107.385C186.897 104.633 188.073 102.363 189.528 102.363C190.983 102.363 192.152 104.61 192.152 107.385Z" stroke="#263238" stroke-width="0.950299" stroke-linecap="round" stroke-linejoin="round"/>
<path d="M157.408 146.819C158.857 146.819 160.032 144.574 160.032 141.805C160.032 139.036 158.857 136.791 157.408 136.791C155.958 136.791 154.784 139.036 154.784 141.805C154.784 144.574 155.958 146.819 157.408 146.819Z" stroke="#263238" stroke-width="0.950299" stroke-linecap="round" stroke-linejoin="round"/>
<path d="M227.266 134.129C227.266 136.904 226.089 139.151 224.634 139.151C223.179 139.151 222.01 136.889 222.01 134.129C222.01 131.369 223.187 129.115 224.634 129.115C226.082 129.115 227.266 131.362 227.266 134.129Z" stroke="#263238" stroke-width="0.950299" stroke-linecap="round" stroke-linejoin="round"/>
<path d="M194.067 111.916L193.585 101.888L198.84 111.441L199.323 102.363" stroke="#263238" stroke-width="0.950299" stroke-linecap="round" stroke-linejoin="round"/>
<path d="M166.478 146.103L166.003 136.074L171.259 145.628L171.734 136.549" stroke="#263238" stroke-width="0.950299" stroke-linecap="round" stroke-linejoin="round"/>
<path d="M214.131 139.143L213.649 129.115L218.904 138.668L219.379 129.59" stroke="#263238" stroke-width="0.950299" stroke-linecap="round" stroke-linejoin="round"/>
<path d="M200.989 172.349C200.989 175.117 199.813 177.363 198.365 177.363C196.917 177.363 195.733 175.101 195.733 172.349C195.733 169.597 196.91 167.328 198.365 167.328C199.82 167.328 200.989 169.575 200.989 172.349Z" stroke="#263238" stroke-width="0.950299" stroke-linecap="round" stroke-linejoin="round"/>
<path d="M187.854 177.363L187.379 167.328L192.635 176.881L193.11 167.81" stroke="#263238" stroke-width="0.950299" stroke-linecap="round" stroke-linejoin="round"/>
<path d="M231.202 134.815C231.202 134.815 229.761 135.969 230.048 134.815C230.335 133.662 231.669 132.629 232.355 134.529C233.041 136.429 232.936 140.304 230.915 140.304C228.894 140.304 230.335 138.284 234.685 139.151" stroke="#263238" stroke-width="0.950299" stroke-linecap="round" stroke-linejoin="round"/>
<path d="M162.535 145.597C162.535 145.597 161.095 146.751 161.381 145.597C161.668 144.444 163.01 143.403 163.696 145.303C164.382 147.203 164.269 151.079 162.248 151.079C160.228 151.079 161.675 149.058 166.018 149.925" stroke="#263238" stroke-width="0.950299" stroke-linecap="round" stroke-linejoin="round"/>
<path d="M43.3727 64.3916L42.9655 81.1078" stroke="#263238" stroke-width="0.950299" stroke-linecap="round" stroke-linejoin="round"/>
<path d="M42.5584 66.4274C42.5584 66.4274 54.3811 65.598 51.1238 67.2417C48.3941 68.7765 45.8009 70.5422 43.3727 72.5197C43.3727 72.5197 55.6101 74.1559 49.4876 76.5989C43.3652 79.0418 39.2935 77.006 39.2935 77.006" stroke="#263238" stroke-width="0.950299" stroke-linecap="round" stroke-linejoin="round"/>
<path d="M54.6299 73.9749C54.6299 73.9749 53.4009 74.9627 53.6422 73.9749C53.8834 72.9872 55.0295 72.1126 55.6176 73.7337C56.2058 75.3548 56.1077 78.6648 54.3811 78.6648C52.6544 78.6648 53.891 76.908 57.5856 77.662" stroke="#263238" stroke-width="0.950299" stroke-linecap="round" stroke-linejoin="round"/>
<path d="M67.0257 67.2417C67.0257 67.2417 58.8674 67.7997 60.5036 70.0164C62.1397 72.2332 70.6976 74.1785 68.6543 75.8072C66.332 77.7617 63.5082 79.026 60.5036 79.4565" stroke="#263238" stroke-width="0.950299" stroke-linecap="round" stroke-linejoin="round"/>
<path d="M74.3621 72.9495C74.3621 75.8826 73.3593 78.2275 72.1001 78.2275C70.8409 78.2275 69.8381 75.8524 69.8381 72.9495C69.8381 70.0466 70.8485 67.6715 72.1001 67.6715C73.3517 67.6715 74.3621 70.024 74.3621 72.9495Z" stroke="#263238" stroke-width="0.950299" stroke-linecap="round" stroke-linejoin="round"/>
<path d="M166.252 98.3367C171.865 98.3367 176.416 87.3317 176.416 73.7563C176.416 60.1809 171.865 49.1759 166.252 49.1759C160.639 49.1759 156.088 60.1809 156.088 73.7563C156.088 87.3317 160.639 98.3367 166.252 98.3367Z" stroke="#263238" stroke-width="0.950299" stroke-linecap="round" stroke-linejoin="round"/>
<path d="M166.252 83.9202C179.827 83.9202 190.832 79.3697 190.832 73.7563C190.832 68.1429 179.827 63.5924 166.252 63.5924C152.677 63.5924 141.672 68.1429 141.672 73.7563C141.672 79.3697 152.677 83.9202 166.252 83.9202Z" stroke="#263238" stroke-width="0.950299" stroke-linecap="round" stroke-linejoin="round"/>
<path d="M173.437 80.9442C183.036 71.3449 187.6 60.3455 183.631 56.3762C179.662 52.4069 168.662 56.971 159.063 66.5702C149.464 76.1694 144.9 87.1689 148.869 91.1381C152.838 95.1074 163.838 90.5434 173.437 80.9442Z" stroke="#263238" stroke-width="0.950299" stroke-linecap="round" stroke-linejoin="round"/>
<path d="M183.631 91.1381C187.6 87.1689 183.036 76.1694 173.437 66.5702C163.838 56.9709 152.838 52.4069 148.869 56.3762C144.9 60.3455 149.464 71.3449 159.063 80.9441C168.662 90.5434 179.662 95.1074 183.631 91.1381Z" stroke="#263238" stroke-width="0.950299" stroke-linecap="round" stroke-linejoin="round"/>
<path d="M169.313 74.1785C169.313 74.9242 169.092 75.6531 168.678 76.273C168.264 76.893 167.675 77.3762 166.986 77.6615C166.297 77.9469 165.539 78.0216 164.808 77.8761C164.077 77.7306 163.405 77.3716 162.878 76.8443C162.35 76.3171 161.991 75.6453 161.846 74.914C161.7 74.1827 161.775 73.4247 162.06 72.7358C162.346 72.0469 162.829 71.4581 163.449 71.0439C164.069 70.6296 164.798 70.4085 165.543 70.4085C166.543 70.4085 167.502 70.8057 168.209 71.5127C168.916 72.2197 169.313 73.1787 169.313 74.1785Z" fill="#263238"/>
<path d="M156.925 55.796C156.927 56.1721 156.816 56.5402 156.609 56.8537C156.401 57.1671 156.104 57.4119 155.757 57.5568C155.41 57.7018 155.028 57.7405 154.659 57.668C154.29 57.5956 153.951 57.4152 153.684 57.1498C153.418 56.8843 153.236 56.5458 153.162 56.177C153.088 55.8082 153.125 55.4258 153.269 55.0782C153.412 54.7305 153.656 54.4333 153.969 54.2242C154.281 54.0151 154.649 53.9035 155.025 53.9035C155.528 53.9035 156.01 54.1026 156.366 54.4573C156.722 54.812 156.923 55.2934 156.925 55.796Z" fill="#263238"/>
<path d="M192.733 73.7563C192.733 74.133 192.621 74.5013 192.411 74.8142C192.201 75.1272 191.903 75.3707 191.554 75.5138C191.206 75.6569 190.823 75.6932 190.453 75.618C190.084 75.5429 189.746 75.3596 189.481 75.0916C189.216 74.8236 189.037 74.483 188.966 74.1129C188.895 73.7428 188.936 73.3601 189.084 73.0133C189.231 72.6666 189.478 72.3714 189.793 72.1654C190.109 71.9593 190.478 71.8517 190.855 71.8562C191.355 71.8621 191.833 72.065 192.184 72.4206C192.536 72.7763 192.733 73.2562 192.733 73.7563Z" fill="#263238"/>
<path d="M312.136 275.24L311.895 353.317H309.21L303.111 275.24H312.136Z" fill="#263238" stroke="#263238" stroke-width="0.950299" stroke-linecap="round" stroke-linejoin="round"/>
<path d="M341.904 275.24L341.663 353.317H338.978L332.879 275.24H341.904Z" fill="#90CAF9" stroke="#263238" stroke-width="0.950299" stroke-linecap="round" stroke-linejoin="round"/>
<path d="M341.889 279.282H333.195L332.879 275.24H341.904L341.889 279.282Z" fill="#263238" stroke="#263238" stroke-width="0.950299" stroke-linecap="round" stroke-linejoin="round"/>
<path d="M300.426 275.24L300.668 353.317H303.352L309.452 275.24H300.426Z" fill="#90CAF9" stroke="#263238" stroke-width="0.950299" stroke-linecap="round" stroke-linejoin="round"/>
<path d="M309.135 279.282H300.434L300.426 275.24H309.452L309.135 279.282Z" fill="#263238" stroke="#263238" stroke-width="0.950299" stroke-linecap="round" stroke-linejoin="round"/>
<path d="M260.366 275.24L260.615 353.317H263.299L269.399 275.24H260.366Z" fill="#90CAF9" stroke="#263238" stroke-width="0.950299" stroke-linecap="round" stroke-linejoin="round"/>
<path d="M269.083 279.282H260.381L260.366 275.24H269.399L269.083 279.282Z" fill="#263238" stroke="#263238" stroke-width="0.950299" stroke-linecap="round" stroke-linejoin="round"/>
<path d="M348.984 207.953L343.314 271.802H291.891L289.78 207.275C289.754 206.367 289.91 205.464 290.239 204.617C290.568 203.771 291.064 203 291.697 202.349C292.33 201.698 293.087 201.18 293.923 200.827C294.759 200.474 295.658 200.292 296.566 200.293L342.281 200.594C343.216 200.602 344.138 200.803 344.991 201.185C345.845 201.566 346.61 202.119 347.239 202.81C347.868 203.501 348.348 204.315 348.649 205.2C348.949 206.085 349.063 207.022 348.984 207.953Z" fill="#90CAF9" stroke="#263238" stroke-width="0.950299" stroke-linecap="round" stroke-linejoin="round"/>
<path d="M345.825 207.953L340.147 271.802H288.754L286.613 207.275C286.587 206.367 286.743 205.464 287.072 204.617C287.402 203.771 287.897 203 288.53 202.349C289.163 201.698 289.92 201.18 290.756 200.827C291.593 200.474 292.491 200.292 293.399 200.293L339.122 200.594C340.056 200.602 340.979 200.803 341.832 201.185C342.685 201.566 343.451 202.119 344.08 202.81C344.709 203.501 345.189 204.315 345.489 205.2C345.789 206.085 345.904 207.022 345.825 207.953Z" fill="#263238" stroke="#263238" stroke-width="0.950299" stroke-linecap="round" stroke-linejoin="round"/>
<path d="M257.064 276.152H344.098V270.354H257.064V276.152Z" fill="#90CAF9" stroke="#263238" stroke-width="0.950299" stroke-linecap="round" stroke-linejoin="round"/>
<path d="M344.098 270.347L343.344 269.238C342.3 267.69 340.892 266.421 339.244 265.544C337.595 264.667 335.756 264.209 333.889 264.209H267.492C265.813 264.212 264.156 264.586 262.638 265.304C261.121 266.022 259.781 267.067 258.715 268.364L257.086 270.347H344.098Z" fill="#263238" stroke="#263238" stroke-width="0.950299" stroke-linecap="round" stroke-linejoin="round"/>
<path d="M257.064 276.152H306.413V270.354H257.064V276.152Z" fill="#90CAF9" stroke="#263238" stroke-width="0.950299" stroke-linecap="round" stroke-linejoin="round"/>
<path d="M299.672 216.247C300.202 216.914 300.49 217.741 300.49 218.592C300.49 219.444 300.202 220.27 299.672 220.937H326.062L327.058 218.381L325.783 216.119L299.672 216.247Z" fill="white" stroke="#263238" stroke-width="0.950299" stroke-linecap="round" stroke-linejoin="round"/>
<path d="M326.093 220.816V216.534H301.693V215.463H336.49C337.342 215.463 338.159 215.801 338.761 216.404C339.364 217.006 339.702 217.823 339.702 218.675C339.702 219.527 339.364 220.344 338.761 220.946C338.159 221.549 337.342 221.887 336.49 221.887H301.693V220.816H326.093Z" fill="#90CAF9" stroke="#263238" stroke-width="0.950299" stroke-linecap="round" stroke-linejoin="round"/>
<path d="M326.093 218.66C326.093 218.092 325.867 217.547 325.465 217.146C325.064 216.744 324.519 216.519 323.951 216.519H298.398V215.448H324.554C325.372 215.448 326.157 215.773 326.735 216.351C327.313 216.93 327.638 217.714 327.638 218.532C327.638 219.418 327.286 220.267 326.66 220.894C326.034 221.52 325.184 221.872 324.298 221.872H298.398V220.801H323.951C324.519 220.801 325.064 220.576 325.465 220.174C325.867 219.773 326.093 219.228 326.093 218.66Z" fill="#90CAF9" stroke="#263238" stroke-width="0.950299" stroke-linecap="round" stroke-linejoin="round"/>
<path d="M299.047 209.748C299.576 210.415 299.865 211.241 299.865 212.093C299.865 212.944 299.576 213.771 299.047 214.438H325.437L326.432 211.882L325.158 209.62L299.047 209.748Z" fill="white" stroke="#263238" stroke-width="0.950299" stroke-linecap="round" stroke-linejoin="round"/>
<path d="M325.467 214.317V210.034H301.097V208.964H335.895C336.746 208.964 337.563 209.302 338.166 209.904C338.768 210.507 339.107 211.324 339.107 212.176C339.107 213.027 338.768 213.844 338.166 214.447C337.563 215.049 336.746 215.388 335.895 215.388H301.097V214.317H325.467Z" fill="#90CAF9" stroke="#263238" stroke-width="0.950299" stroke-linecap="round" stroke-linejoin="round"/>
<path d="M325.467 212.176C325.467 211.608 325.241 211.063 324.84 210.661C324.438 210.26 323.893 210.034 323.325 210.034H297.772V208.964H323.929C324.746 208.964 325.531 209.288 326.109 209.867C326.688 210.445 327.012 211.23 327.012 212.047C327.012 212.487 326.926 212.922 326.757 213.327C326.589 213.733 326.342 214.102 326.031 214.412C325.72 214.722 325.351 214.968 324.945 215.136C324.539 215.303 324.104 215.389 323.665 215.388H297.772V214.317H323.325C323.893 214.317 324.438 214.091 324.84 213.69C325.241 213.288 325.467 212.744 325.467 212.176Z" fill="#90CAF9" stroke="#263238" stroke-width="0.950299" stroke-linecap="round" stroke-linejoin="round"/>
<path d="M339.484 212.538L338.187 200.323" stroke="#263238" stroke-width="0.950299" stroke-linecap="round" stroke-linejoin="round"/>
<path d="M338.179 200.67C338.179 200.67 335.842 198.852 335.842 194.69C335.842 190.528 338.956 187.15 338.956 187.15C338.956 187.15 342.334 191.305 341.557 195.444C340.78 199.584 338.179 200.67 338.179 200.67Z" fill="#90CAF9" stroke="#263238" stroke-width="0.950299" stroke-linecap="round" stroke-linejoin="round"/>
<path d="M340.682 211.633C341.814 208.71 343.2 205.892 344.822 203.211" stroke="#263238" stroke-width="0.950299" stroke-linecap="round" stroke-linejoin="round"/>
<path d="M343.6 205.42C343.6 205.42 342.304 202.751 344.136 199.026C345.968 195.301 350.258 193.642 350.258 193.642C350.258 193.642 351.457 198.86 348.924 202.245C346.39 205.631 343.6 205.42 343.6 205.42Z" fill="#90CAF9" stroke="#263238" stroke-width="0.950299" stroke-linecap="round" stroke-linejoin="round"/>
<path d="M337.372 212.726C336.672 210.366 335.713 208.09 334.515 205.94L332.698 202.826" stroke="#263238" stroke-width="0.950299" stroke-linecap="round" stroke-linejoin="round"/>
<path d="M334.16 205.261C332.724 205.704 331.199 205.776 329.728 205.47C328.256 205.164 326.886 204.491 325.746 203.512C321.712 200.119 321.976 193.205 321.976 193.205C321.976 193.205 329.795 192.089 332.954 196.523C333.863 197.765 334.449 199.214 334.66 200.74C334.87 202.265 334.699 203.819 334.16 205.261Z" fill="#90CAF9" stroke="#263238" stroke-width="0.950299" stroke-linecap="round" stroke-linejoin="round"/>
<path d="M345.463 208.639H331.951V221.887H345.463V208.639Z" fill="white" stroke="#263238" stroke-width="0.950299" stroke-linecap="round" stroke-linejoin="round"/>
<path d="M228.676 214.717L240.8 168.459" stroke="#263238" stroke-width="0.950299" stroke-miterlimit="10"/>
<path d="M238.485 167.584C238.426 167.828 238.466 168.085 238.596 168.3C238.726 168.515 238.935 168.669 239.179 168.73C245.102 170.302 250.165 174.148 253.268 179.433C256.372 184.717 257.264 191.012 255.753 196.951C254.241 202.889 250.447 207.991 245.195 211.149C239.943 214.306 233.657 215.263 227.703 213.812C227.586 213.781 227.464 213.774 227.343 213.791C227.223 213.808 227.108 213.848 227.003 213.91C226.899 213.972 226.808 214.053 226.735 214.15C226.662 214.247 226.61 214.358 226.58 214.475V214.521C226.549 214.636 226.542 214.757 226.558 214.876C226.575 214.995 226.615 215.109 226.676 215.212C226.737 215.315 226.818 215.405 226.914 215.477C227.01 215.548 227.119 215.6 227.236 215.629C233.679 217.222 240.491 216.202 246.186 212.791C251.88 209.38 255.994 203.856 257.631 197.423C259.267 190.991 258.293 184.172 254.921 178.454C251.549 172.737 246.053 168.586 239.631 166.905C239.512 166.874 239.387 166.866 239.264 166.883C239.141 166.9 239.023 166.942 238.916 167.005C238.81 167.068 238.717 167.152 238.643 167.251C238.569 167.351 238.515 167.464 238.485 167.584Z" fill="#263238" stroke="#263238" stroke-width="0.950299" stroke-miterlimit="10"/>
<path d="M233.2 212.462C244.939 212.462 254.455 202.946 254.455 191.207C254.455 179.468 244.939 169.952 233.2 169.952C221.461 169.952 211.944 179.468 211.944 191.207C211.944 202.946 221.461 212.462 233.2 212.462Z" fill="#90CAF9" stroke="#263238" stroke-width="0.950299" stroke-miterlimit="10"/>
<path d="M232.974 220.357H228.314L228.849 215.576H232.431L232.974 220.357Z" fill="#263238" stroke="#263238" stroke-width="0.950299" stroke-miterlimit="10"/>
<path d="M241.652 221.887H219.786C219.786 221.618 219.839 221.352 219.942 221.103C220.045 220.855 220.197 220.629 220.387 220.44C220.578 220.25 220.804 220.099 221.053 219.997C221.301 219.895 221.568 219.843 221.837 219.844H239.586C239.855 219.843 240.122 219.895 240.37 219.997C240.619 220.099 240.845 220.25 241.036 220.44C241.226 220.629 241.378 220.855 241.481 221.103C241.584 221.352 241.637 221.618 241.637 221.887H241.652Z" fill="#263238" stroke="#263238" stroke-width="0.950299" stroke-miterlimit="10"/>
<path d="M246.334 186.012C247.842 186.517 248.106 186.012 248.86 186.766C249.614 187.52 251.122 189.548 250.889 191.064C250.655 192.579 249.871 194.08 250.889 194.08C251.906 194.08 252.909 192.572 252.909 191.818C252.909 191.064 253.414 187.512 253.414 187.512L253.859 186.193C252.671 181.292 249.779 176.974 245.701 174.008L245.068 174.106L243.039 175.365C241.531 175.365 241.019 174.86 240.023 174.86C239.034 174.748 238.039 175.018 237.241 175.614C236.231 176.368 235.22 177.876 236.231 178.148C236.969 178.339 237.731 178.423 238.493 178.396C239.247 178.396 239.503 177.642 239.247 178.396C239.061 178.776 238.772 179.096 238.414 179.32C238.055 179.544 237.641 179.663 237.219 179.663C236.448 179.578 235.69 179.409 234.957 179.158C232.695 178.404 231.669 177.891 230.659 178.404C229.648 178.917 228.63 178.909 228.397 179.671C228.183 180.414 228.012 181.17 227.884 181.933C227.946 182.101 228.046 182.253 228.178 182.376C228.31 182.498 228.468 182.588 228.641 182.637C228.814 182.686 228.996 182.694 229.172 182.659C229.349 182.625 229.514 182.549 229.656 182.438C230.363 182.004 231.123 181.665 231.918 181.427H232.936L233.946 183.199L234.957 184.21C235.256 183.496 235.345 182.711 235.213 181.948C235.967 181.443 237.475 183.214 237.475 183.214L238.742 183.463L241.004 183.976L241.758 185.748L238.47 184.481C238.47 184.481 237.203 185.748 237.716 186.502C238.028 186.972 238.281 187.478 238.47 188.01C237.258 187.464 235.996 187.04 234.7 186.743C233.192 186.487 232.438 186.992 231.91 186.238C231.383 185.484 230.9 183.976 230.138 183.705C229.479 183.533 228.8 183.447 228.118 183.448C227.101 183.458 226.118 183.817 225.336 184.466C224.325 185.476 223.828 185.22 223.307 186.487C222.944 187.557 222.692 188.661 222.553 189.782C222.553 189.782 221.799 189.782 221.799 191.29C221.85 192.485 222.019 193.672 222.304 194.834L224.333 196.605C224.884 196.882 225.483 197.053 226.097 197.111H228.63L230.402 197.616C230.694 198.068 230.868 198.587 230.908 199.124C230.882 199.908 231.056 200.687 231.413 201.386C231.742 202.173 232.26 202.867 232.921 203.407V205.435C232.773 206.18 232.687 206.937 232.664 207.697C232.664 208.707 234.429 210.095 234.429 210.095L236.465 209.718C236.465 209.718 238.236 209.718 238.485 208.451C238.626 207.463 238.97 206.516 239.496 205.669C240.013 204.972 240.439 204.212 240.762 203.407C241.215 202.184 241.553 200.922 241.773 199.637C242.029 197.865 242.285 196.847 242.285 196.847L245.068 193.559C245.068 193.559 246.078 192.549 245.822 191.539C245.565 190.528 243.56 190.521 243.56 190.521L246.349 188.259L245.068 186.238C245.068 186.238 244.811 185.484 246.334 186.012Z" fill="white" stroke="#263238" stroke-width="0.950299" stroke-linecap="round" stroke-linejoin="round"/>
<path d="M244.774 203.995C244.774 203.995 239.661 208.029 242.353 207.222C243.075 207.06 243.715 206.646 244.159 206.055C244.602 205.463 244.82 204.733 244.774 203.995Z" fill="white" stroke="#263238" stroke-width="0.950299" stroke-linecap="round" stroke-linejoin="round"/>
<path d="M196.05 353.317H192.974L191.104 223.184H196.224L196.05 353.317Z" fill="white" stroke="#263238" stroke-width="0.950299" stroke-linecap="round" stroke-linejoin="round"/>
<path d="M198.591 353.317H195.522L195.341 223.184H200.469L198.591 353.317Z" fill="#263238" stroke="#263238" stroke-width="0.950299" stroke-linecap="round" stroke-linejoin="round"/>
<path d="M215.322 353.317H212.246L210.376 223.184H215.496L215.322 353.317Z" fill="white" stroke="#263238" stroke-width="0.950299" stroke-linecap="round" stroke-linejoin="round"/>
<path d="M217.863 353.317H214.795L214.614 223.184H219.741L217.863 353.317Z" fill="#263238" stroke="#263238" stroke-width="0.950299" stroke-linecap="round" stroke-linejoin="round"/>
<path d="M229.407 241.551H196.827V292.748H229.407V241.551Z" fill="white" stroke="#263238" stroke-width="0.950299" stroke-linecap="round" stroke-linejoin="round"/>
<path d="M252.291 241.551H229.023V292.748H252.291V241.551Z" fill="#263238" stroke="#263238" stroke-width="0.950299" stroke-linecap="round" stroke-linejoin="round"/>
<path d="M334.748 353.317H331.68L329.802 223.184H334.922L334.748 353.317Z" fill="white" stroke="#263238" stroke-width="0.950299" stroke-linecap="round" stroke-linejoin="round"/>
<path d="M337.297 353.317H334.221L334.047 223.184H339.167L337.297 353.317Z" fill="#263238" stroke="#263238" stroke-width="0.950299" stroke-linecap="round" stroke-linejoin="round"/>
<path d="M349.399 353.317H346.322L344.452 223.184H349.572L349.399 353.317Z" fill="white" stroke="#263238" stroke-width="0.950299" stroke-linecap="round" stroke-linejoin="round"/>
<path d="M351.94 353.317H348.871L348.69 223.184H353.817L351.94 353.317Z" fill="#263238" stroke="#263238" stroke-width="0.950299" stroke-linecap="round" stroke-linejoin="round"/>
<path d="M357.482 223.184H188.955V241.921H357.482V223.184Z" fill="white" stroke="#263238" stroke-width="0.950299" stroke-linecap="round" stroke-linejoin="round"/>
<path d="M357.482 223.184H336.468V241.921H357.482V223.184Z" fill="#263238" stroke="#263238" stroke-width="0.950299" stroke-linecap="round" stroke-linejoin="round"/>
<path d="M357.482 223.184H188.955V231.131H357.482V223.184Z" fill="#263238" stroke="#263238" stroke-width="0.950299" stroke-linecap="round" stroke-linejoin="round"/>
<path d="M359.6 221.676H186.844V226.502H359.6V221.676Z" fill="white" stroke="#263238" stroke-width="0.950299" stroke-linecap="round" stroke-linejoin="round"/>
<path d="M359.6 221.676H338.873V226.502H359.6V221.676Z" fill="#263238" stroke="#263238" stroke-width="0.950299" stroke-linecap="round" stroke-linejoin="round"/>
<path d="M122.377 348.996H105.736C105.261 348.996 104.876 349.381 104.876 349.856V352.766C104.876 353.241 105.261 353.626 105.736 353.626H122.377C122.852 353.626 123.236 353.241 123.236 352.766V349.856C123.236 349.381 122.852 348.996 122.377 348.996Z" fill="#263238"/>
<path d="M130.249 260.213C130.249 260.213 124.284 279.063 124.284 283.587C124.284 288.111 124.284 299.587 121.412 309.864C118.539 320.141 114.724 331.119 114.49 332.31C114.34 333.099 114.259 333.898 114.249 334.701C114.249 334.701 122.369 346.403 122.369 348.077C122.369 349.75 120.695 350.225 119.745 350.225H105.887C105.887 350.225 104.937 349.75 104.454 345.445C103.972 341.14 105.208 333.268 105.208 332.31C105.208 331.353 103.776 318.459 101.627 311.055C99.4779 303.651 99.4779 291.233 99.7191 288.126C99.9604 285.02 101.152 280.005 101.152 278.324V265.431L130.249 260.213Z" fill="white" stroke="#263238" stroke-width="0.950299" stroke-linecap="round" stroke-linejoin="round"/>
<path d="M114.354 344.932C114.354 344.932 116.616 347.194 116.322 348.371C116.15 349.015 115.872 349.627 115.5 350.18" stroke="#263238" stroke-width="0.950299" stroke-linecap="round" stroke-linejoin="round"/>
<path d="M117.468 344.932C117.468 344.932 119.602 346.078 119.27 347.881C119.151 348.656 118.987 349.424 118.78 350.18" stroke="#263238" stroke-width="0.950299" stroke-linecap="round" stroke-linejoin="round"/>
<path d="M119.76 344.766C119.76 344.766 122.226 347.39 121.268 348.702C120.878 349.319 120.365 349.848 119.76 350.256" stroke="#263238" stroke-width="0.950299" stroke-linecap="round" stroke-linejoin="round"/>
<path d="M104.786 270.226C104.786 270.226 123.636 271.734 127.972 267.301L128.944 263.395L103.308 266.079L104.786 270.226Z" fill="#263238" stroke="#263238" stroke-width="0.950299" stroke-linecap="round" stroke-linejoin="round"/>
<path d="M110.712 345.566C110.712 345.566 111.399 345.392 112.771 346.418C114.143 347.443 114.663 349.162 113.118 349.848" stroke="#263238" stroke-width="0.950299" stroke-linecap="round" stroke-linejoin="round"/>
<path d="M120.251 343.869C119.497 342.67 118.682 341.358 117.868 340.099C113.475 338.993 108.885 338.925 104.462 339.903C104.394 340.914 104.349 341.931 104.349 342.919C109.623 341.613 115.17 341.945 120.251 343.869Z" fill="#263238"/>
<path d="M97.3289 348.996H79.4893C79.0146 348.996 78.6297 349.381 78.6297 349.856V352.766C78.6297 353.241 79.0146 353.626 79.4893 353.626H97.3289C97.8037 353.626 98.1885 353.241 98.1885 352.766V349.856C98.1885 349.381 97.8037 348.996 97.3289 348.996Z" fill="#263238"/>
<path d="M75.855 259.534C75.855 259.534 83.2819 276.024 82.4525 282.071C81.6231 288.119 77.7853 301.314 80.8088 310.935C83.8324 320.556 87.4063 331.828 87.9567 333.479C88.5072 335.13 81.3592 345.332 80.0171 347.496C78.675 349.66 82.2188 350.512 84.4205 350.512H95.9265C95.9265 350.512 97.5778 349.962 97.5778 347.496C97.5778 345.03 95.1047 334.851 96.4769 328.533C97.8492 322.214 100.873 308.175 103.896 294.995C106.92 281.815 106.098 265.853 106.098 265.853L75.855 259.534Z" fill="white" stroke="#263238" stroke-width="0.950299" stroke-linecap="round" stroke-linejoin="round"/>
<path d="M83.1914 346.629C83.1914 346.629 80.7711 349.253 81.5251 350.075" stroke="#263238" stroke-width="0.950299" stroke-linecap="round" stroke-linejoin="round"/>
<path d="M85.4911 346.795C85.4911 346.795 83.3573 348.929 84.1792 350.241" stroke="#263238" stroke-width="0.950299" stroke-linecap="round" stroke-linejoin="round"/>
<path d="M88.3111 346.629C88.3111 346.629 86.0491 349.087 87.3309 350.241" stroke="#263238" stroke-width="0.950299" stroke-linecap="round" stroke-linejoin="round"/>
<path d="M79.3988 268.522C79.3988 268.522 97.2158 272.91 106 269.276L106.098 265.875L78.2 264.367L79.3988 268.522Z" fill="#263238" stroke="#263238" stroke-width="0.950299" stroke-linecap="round" stroke-linejoin="round"/>
<path d="M91.6664 345.566C91.0556 346.136 90.5858 346.841 90.2941 347.624C89.608 349.132 90.1207 349.848 91.3271 350.195" stroke="#263238" stroke-width="0.950299" stroke-linecap="round" stroke-linejoin="round"/>
<path d="M97.1329 343.862C96.9896 342.912 96.8237 341.849 96.6729 340.71C91.2215 339.104 87.346 339.375 84.805 340.099C83.8323 341.66 82.7918 343.243 81.9021 344.578C82.2768 344.579 82.6367 344.432 82.9049 344.171C82.9502 344.133 86.9388 340.416 97.1329 343.862Z" fill="#263238"/>
<path d="M62.4187 202.291C62.4187 202.291 58.1209 211.964 60.2698 227.369C62.4187 242.773 69.5893 263.199 69.5893 263.199C80.701 266.083 92.1373 267.528 103.617 267.497C122.965 267.497 132.269 262.837 132.269 262.837C132.269 262.837 139.432 235.61 139.432 220.56C139.432 205.51 135.489 196.922 135.489 196.922C135.489 196.922 101.099 204.462 69.2123 193.695L62.4187 202.291Z" fill="#263238" stroke="#263238" stroke-width="0.950299" stroke-linecap="round" stroke-linejoin="round"/>
<path d="M107.38 247.485L108.601 249.242" stroke="#787878" stroke-width="0.950299" stroke-linecap="round" stroke-linejoin="round"/>
<path d="M91.9378 225.348L105.947 245.442" stroke="#787878" stroke-width="0.950299" stroke-linecap="round" stroke-linejoin="round"/>
<path d="M103.994 236.304L112.107 247.048" stroke="#787878" stroke-width="0.950299" stroke-linecap="round" stroke-linejoin="round"/>
<path d="M80.7711 265.679C80.7711 265.679 102.026 270.06 128.115 264.805" stroke="#787878" stroke-width="0.950299" stroke-linecap="round" stroke-linejoin="round"/>
<path d="M97.1706 124.908L81.0501 123.829C81.0501 123.829 84.9935 149.986 79.2556 166.106C73.5176 182.227 69.2274 193.695 69.2274 193.695L65.2839 201.235C73.6367 204.19 82.2854 206.23 91.0783 207.32C104.341 208.752 116.518 209.476 122.965 208.036C127.347 207.009 131.657 205.694 135.866 204.1C135.866 204.1 123.681 172.915 123.681 156.078C123.711 146.094 122.415 136.15 119.828 126.506L113.623 125.752L97.1706 124.908Z" fill="white" stroke="#263238" stroke-width="0.950299" stroke-linecap="round" stroke-linejoin="round"/>
<path d="M113.231 144.135L108.269 208.73L112.613 209.348L113.231 144.135Z" fill="#263238" stroke="#263238" stroke-width="0.950299" stroke-linecap="round" stroke-linejoin="round"/>
<path d="M96.0999 106.812C96.8539 108.026 96.0547 118.876 95.9416 121.055C95.8285 123.234 94.8558 124.825 92.5184 124.191C87.4892 122.774 88.575 126.159 88.575 126.159C88.575 126.159 87.8587 134.046 91.7946 140.485C95.7305 146.924 106.309 148.184 111.142 145.145C115.975 142.106 116.699 127.305 116.699 127.305L113.623 125.797C112.829 125.4 112.164 124.785 111.708 124.024C111.251 123.263 111.021 122.387 111.044 121.5L111.504 112.927C111.504 112.927 100.933 114.337 96.0999 106.812Z" fill="white" stroke="#263238" stroke-width="0.950299" stroke-linecap="round" stroke-linejoin="round"/>
<path d="M111.504 112.904C111.504 112.904 100.948 114.337 96.0999 106.812C96.8087 107.928 96.1829 117.081 95.9793 120.316C97.398 121.477 99.0904 122.256 100.895 122.578C104.462 122.985 108.202 121.492 111.15 119.615L111.504 112.904Z" fill="#263238" stroke="#263238" stroke-width="0.950299" stroke-linecap="round" stroke-linejoin="round"/>
<path d="M94.4939 123.656C94.4939 123.656 85.5289 123.302 77.4686 123.121C69.4083 122.94 65.4649 123.664 62.3886 125.277C59.3123 126.891 39.4594 145.333 38.2078 148.38C36.9562 151.426 35.6668 155.053 43.3727 155.234C51.0786 155.414 67.0483 150.529 67.0483 150.529C67.0483 150.529 72.9898 166.106 72.4771 173.096C71.9644 180.085 67.282 190.649 63.3386 196.922C59.3952 203.195 59.3952 206.053 59.3952 206.053C59.3952 206.053 63.7005 213.043 74.9804 215.727C81.6212 217.329 88.4007 218.288 95.2253 218.592L93.4308 178.291L94.4939 123.656Z" fill="#90CAF9" stroke="#263238" stroke-width="0.950299" stroke-linecap="round" stroke-linejoin="round"/>
<path d="M64.2208 142.416L67.0784 150.521L62.8184 145.213" stroke="#263238" stroke-width="0.950299" stroke-linecap="round" stroke-linejoin="round"/>
<path d="M60.2698 142.106L37.9514 153.673C38.7582 154.562 40.3944 155.181 43.4029 155.226C45.8812 155.199 48.3519 154.947 50.7845 154.472L60.2698 142.106Z" fill="#263238" stroke="#263238" stroke-width="0.950299" stroke-linecap="round" stroke-linejoin="round"/>
<path d="M87.3309 123.611C87.3309 128.889 87.3309 147.784 88.2131 157.149C88.9671 165.02 91.9001 174.74 93.4911 179.573L93.4307 178.291L94.4939 123.656C94.4939 123.656 91.4628 123.656 87.3309 123.611Z" fill="#90CAF9" stroke="#263238" stroke-width="0.950299" stroke-linecap="round" stroke-linejoin="round"/>
<path d="M113.623 125.775C113.623 125.775 112.401 167.003 112.039 172.915C111.678 178.826 109.71 219.127 109.71 219.127C115.417 219.121 121.049 217.832 126.192 215.357C134.788 211.233 139.447 208.187 140.518 206.4C141.589 204.613 139.621 201.205 138.007 196.01C136.394 190.815 134.064 182.928 133.528 180.244C132.993 177.559 133.348 170.932 133.348 170.932C133.348 170.932 141.951 179.346 144.454 178.63C146.957 177.914 163.802 182.755 164.164 181.495C164.525 180.236 150.184 154.449 145.17 143.162C140.156 131.875 132.993 128.911 128.152 127.833C123.312 126.755 113.623 125.775 113.623 125.775Z" fill="#90CAF9" stroke="#263238" stroke-width="0.950299" stroke-linecap="round" stroke-linejoin="round"/>
<path d="M119.828 126.506C116.458 126.069 113.623 125.752 113.623 125.752C113.623 125.752 112.401 166.981 112.039 172.892C111.949 174.355 111.76 177.929 111.534 182.483C113.133 177.597 116.812 165.782 117.951 157.842C119.082 149.797 119.587 132.629 119.828 126.506Z" fill="#90CAF9" stroke="#263238" stroke-width="0.950299" stroke-linecap="round" stroke-linejoin="round"/>
<path d="M125.476 137.085L112.575 177.756L114.724 179.362L128.16 138.344L125.476 137.085Z" fill="#263238" stroke="#263238" stroke-width="0.950299" stroke-linecap="round" stroke-linejoin="round"/>
<path d="M128.16 138.344L152.703 147.301L138.55 183.667L114.724 179.362L128.16 138.344Z" fill="white" stroke="#263238" stroke-width="0.950299" stroke-linecap="round" stroke-linejoin="round"/>
<path d="M126.546 143.177L113.653 183.84L115.802 185.454L129.238 144.436L126.546 143.177Z" fill="#263238" stroke="#263238" stroke-width="0.950299" stroke-linecap="round" stroke-linejoin="round"/>
<path d="M129.238 144.436L153.781 153.386L139.628 189.752L115.802 185.454L129.238 144.436Z" fill="white" stroke="#263238" stroke-width="0.950299" stroke-linecap="round" stroke-linejoin="round"/>
<path d="M126.011 155.716C126.011 155.716 121.178 152.851 119.564 152.7C119.211 152.638 118.849 152.651 118.502 152.738C118.154 152.826 117.829 152.986 117.548 153.208C117.266 153.431 117.035 153.71 116.87 154.028C116.704 154.345 116.607 154.695 116.586 155.053C116.556 155.822 116.674 156.59 116.933 157.315C116.933 157.315 115.184 157.782 114.369 162.412C114.083 164.04 113.291 165.277 114.369 166.536C116.088 168.442 118.446 169.652 120.997 169.937C123.664 170.339 126.298 170.939 128.876 171.731C132.699 175.677 136.779 179.365 141.091 182.77C147.538 187.784 153.268 193.514 158.109 192.617C162.95 191.72 165.988 186.17 164.201 181.51C162.414 176.851 136.793 166.468 135.896 166.106C135.056 165.667 134.273 165.125 133.566 164.493C133.566 164.493 133.566 160.557 132.669 158.762C131.772 156.968 128.899 154.283 128.899 151.78C128.899 149.277 129.08 148.191 127.647 148.553C126.215 148.915 125.295 153.386 126.011 155.716Z" fill="white" stroke="#263238" stroke-width="0.950299" stroke-linecap="round" stroke-linejoin="round"/>
<path d="M91.885 91.6939C91.885 91.6939 89.623 85.9937 87.9567 89.7939C85.9209 94.4988 89.8568 99.1661 90.8747 99.7994C91.8926 100.433 91.885 91.6939 91.885 91.6939Z" fill="white" stroke="#263238" stroke-width="0.950299" stroke-linecap="round" stroke-linejoin="round"/>
<path d="M124.594 95.758C124.594 95.758 127.496 92.184 128.364 95.3131C129.231 98.4422 126.577 101.571 124.594 102.913C122.611 104.256 121.909 106.043 121.909 103.585C121.909 101.126 124.594 95.758 124.594 95.758Z" fill="white" stroke="#263238" stroke-width="0.950299" stroke-linecap="round" stroke-linejoin="round"/>
<path d="M107.847 47.7433C107.847 47.7433 103.157 44.3277 99.9905 48.2485C96.8237 52.1693 100.119 55.0948 97.8341 55.977C95.5495 56.8591 94.0641 52.8102 89.3516 56.731C84.6391 60.6518 87.7079 63.8261 87.9567 65.2135C88.2055 66.6008 87.3233 66.6084 83.7795 68.1314C80.2357 69.6545 78.3357 73.319 83.0255 77.1191C87.7154 80.9193 89.9925 75.4754 90.6259 78.0088C91.2592 80.5423 90.6259 82.6987 93.7927 82.5328C96.9595 82.367 103.293 77.2096 107.221 79.6149C111.15 82.0201 115.448 88.1049 118.366 86.2048C121.283 84.3047 122.294 81.0098 124.827 82.661C127.361 84.3123 130.905 85.0663 132.933 79.8712C134.961 74.6762 130.905 72.9043 131.538 70.122C132.171 67.3397 135.715 63.6602 132.676 59.3549C129.638 55.0495 126.599 59.6037 123.432 55.5849C120.266 51.5661 123.561 47.3512 119.504 45.0666C118.53 44.5062 117.455 44.1441 116.341 44.0012C115.227 43.8583 114.095 43.9373 113.011 44.2338C111.928 44.5303 110.914 45.0384 110.027 45.7287C109.141 46.419 108.4 47.278 107.847 48.256" fill="#263238"/>
<path d="M96.8766 76.7195C96.8766 76.7195 92.1791 80.7459 91.7343 85.8881C91.2894 91.0304 89.2762 103.321 91.5081 108.018C93.7399 112.715 99.3195 119.328 104.251 119.863C111.18 120.663 118.78 114.276 119.896 111.818C121.012 109.36 127.074 91.9201 125.709 84.0936C123.923 73.8166 106.709 67.106 96.8766 76.7195Z" fill="white" stroke="#263238" stroke-width="0.950299" stroke-linecap="round" stroke-linejoin="round"/>
<path d="M125.71 84.0936C123.923 73.8166 106.709 67.106 96.8765 76.7195C96.8765 76.7195 92.1791 80.7459 91.7343 85.8881C91.6061 87.3434 91.3572 89.3716 91.1084 91.6412C92.4947 90.478 93.3648 88.8138 93.5288 87.0116C93.7851 83.8448 96.4468 80.5498 106.581 79.1549C116.714 77.76 122.415 85.2397 123.297 87.8938C124.179 90.5479 122.92 94.0992 123.553 95.8786C123.609 96.1316 123.717 96.3701 123.87 96.5791C124.024 96.7881 124.218 96.9629 124.443 97.0926C125.559 92.2745 126.275 87.3509 125.71 84.0936Z" fill="#263238"/>
<path d="M105.45 64.2031C105.344 64.3117 105.245 64.4276 105.155 64.5499C104.319 65.7413 103.647 65.8167 102.268 65.3492C99.2516 64.3388 96.6956 65.7337 96.8238 68.2672C96.9519 70.8006 98.0905 70.4161 95.8134 72.0372C93.5363 73.6583 91.6287 74.827 92.8954 77.8656C94.1621 80.9042 97.3591 79.2831 97.3591 81.432C97.3591 83.5809 97.2309 86.3707 100.375 86.3707C103.519 86.3707 105.698 82.6007 106.588 84.5988C107.478 86.5969 108.488 89.5375 111.27 89.0248C114.053 88.512 115.576 84.0861 118.366 86.2425C121.155 88.3989 122.671 90.2915 124.194 88.5045C125.717 86.7175 124.066 84.071 126.094 82.9324C128.122 81.7939 130.015 81.2887 128.876 77.4886C127.738 73.6884 126.094 75.5885 124.827 72.6705C123.561 69.7525 123.809 66.5933 121.404 66.0881C118.999 65.5829 117.86 67.2266 115.576 66.9778C113.63 66.7592 112.861 64.3916 111.218 63.5999C109.574 62.8082 106.822 62.8459 105.45 64.2031Z" fill="#263238" stroke="#787878" stroke-width="0.950299" stroke-linecap="round" stroke-linejoin="round"/>
<path d="M109.001 94.8456C109.001 94.8456 107.885 97.9748 108.33 99.9879C108.775 102.001 109.898 103.758 108.104 104.014C106.309 104.271 104.974 103.117 104.974 102.001" stroke="#263238" stroke-width="0.950299" stroke-linecap="round" stroke-linejoin="round"/>
<path d="M100.918 104.806C101.632 105.738 102.543 106.501 103.586 107.042C104.628 107.583 105.777 107.888 106.95 107.935C109.262 107.918 111.517 107.221 113.434 105.929" stroke="#263238" stroke-width="0.950299" stroke-linecap="round" stroke-linejoin="round"/>
<path d="M103.761 94.8004C103.655 95.8485 103.105 96.6553 102.532 96.5949C101.959 96.5346 101.574 95.6449 101.68 94.5968C101.785 93.5488 102.336 92.7495 102.909 92.8023C103.482 92.8551 103.866 93.7524 103.761 94.8004Z" fill="#263238"/>
<path d="M114.015 96.6402C113.909 97.6882 113.359 98.4875 112.786 98.4347C112.213 98.3819 111.828 97.4771 111.934 96.4291C112.039 95.381 112.59 94.5818 113.163 94.6345C113.736 94.6873 114.121 95.5921 114.015 96.6402Z" fill="#263238"/>
<path d="M107.613 92.5007C107.64 93.9124 107.247 95.3003 106.485 96.4885C105.722 97.6767 104.624 98.6119 103.329 99.1755C102.035 99.7392 100.602 99.9059 99.2126 99.6546C97.8232 99.4034 96.5396 98.7454 95.5244 97.7641C94.5093 96.7827 93.8082 95.5222 93.51 94.1421C93.2118 92.762 93.3298 91.3245 93.8493 90.0116C94.3687 88.6986 95.2661 87.5694 96.4278 86.7669C97.5895 85.9644 98.9633 85.5247 100.375 85.5036C102.261 85.4773 104.081 86.1984 105.437 87.5094C106.793 88.8204 107.576 90.6148 107.613 92.5007V92.5007Z" stroke="#263238" stroke-width="0.950299" stroke-linecap="round" stroke-linejoin="round"/>
<path d="M123.463 95.5243C123.489 96.9346 123.097 98.3212 122.336 99.5087C121.574 100.696 120.478 101.631 119.185 102.196C117.892 102.76 116.461 102.928 115.072 102.68C113.684 102.431 112.4 101.776 111.384 100.797C110.368 99.8191 109.665 98.5614 109.363 97.1834C109.062 95.8053 109.175 94.3688 109.69 93.0555C110.205 91.7422 111.098 90.611 112.255 89.8049C113.413 88.9989 114.784 88.5542 116.194 88.5271C118.085 88.4928 119.913 89.2103 121.276 90.5222C122.638 91.8341 123.425 93.6331 123.463 95.5243Z" stroke="#263238" stroke-width="0.950299" stroke-linecap="round" stroke-linejoin="round"/>
<path d="M107.629 93.2622L109.295 93.6468" stroke="#263238" stroke-width="0.950299" stroke-linecap="round" stroke-linejoin="round"/>
<path d="M93.4458 90.6233L91.2215 90.1105" stroke="#263238" stroke-width="0.950299" stroke-linecap="round" stroke-linejoin="round"/>
<path d="M123.463 95.5243L125.129 95.8334" stroke="#263238" stroke-width="0.950299" stroke-linecap="round" stroke-linejoin="round"/>
<path d="M98.7766 89.726C99.5859 89.0256 100.559 88.5409 101.605 88.3168C102.652 88.0927 103.738 88.1365 104.763 88.4442" stroke="#263238" stroke-width="0.950299" stroke-linecap="round" stroke-linejoin="round"/>
<path d="M118.984 94.1595C118.477 93.2157 117.74 92.4152 116.841 91.8326C115.942 91.2499 114.91 90.904 113.842 90.8268" stroke="#263238" stroke-width="0.950299" stroke-linecap="round" stroke-linejoin="round"/>
<path d="M84.0585 95.004C85.61 92.8129 87.3266 90.7434 89.1933 88.8137C91.9077 86.0917 95.5344 84.8853 95.5344 86.5517C95.5344 88.218 93.1216 88.5121 91.4553 90.6233C89.7889 92.7345 85.8681 98.3291 85.7173 99.8371C85.5665 101.345 85.7173 103.916 88.4393 103.464C91.1612 103.011 94.1772 100.448 95.5344 99.5355C96.8916 98.6232 100.669 99.5355 99.3044 100.749C97.9397 101.963 95.5344 102.559 93.5665 104.218C91.5985 105.877 88.4317 109.202 86.7805 110.114C85.1292 111.026 83.9153 111.622 83.9153 111.622C83.9153 111.622 83.3121 112.225 81.1933 115.852C79.0746 119.479 72.4319 129.899 68.3753 134.431C64.3188 138.962 49.0428 154.035 45.2728 155.422C41.5028 156.809 32.2814 155.573 30.9468 150.74C29.6122 145.907 32.7564 140.319 39.5499 135.486C46.3435 130.653 65.6836 119.471 69.9135 117.209C74.1434 114.947 75.8022 113.733 75.9455 112.527C76.0888 111.321 78.0567 103.479 79.8738 100.29C80.9996 98.3304 82.4099 96.5491 84.0585 95.004Z" fill="white" stroke="#263238" stroke-width="0.950299" stroke-linecap="round" stroke-linejoin="round"/>
<path d="M79.1801 102.717C79.1801 102.717 79.9341 97.3414 80.7334 96.6251C81.5326 95.9088 86.3432 96.0294 87.3007 96.5045C88.2583 96.9795 88.2508 101.285 87.8964 102.242C87.542 103.2 86.9388 103.788 86.5844 103.434C86.2301 103.079 85.5062 99.4903 85.5062 99.4903L83.0029 99.1359L82.166 102.717" fill="white"/>
<path d="M79.1801 102.717C79.1801 102.717 79.9341 97.3414 80.7334 96.6251C81.5326 95.9088 86.3432 96.0294 87.3007 96.5045C88.2583 96.9795 88.2508 101.285 87.8964 102.242C87.542 103.2 86.9388 103.788 86.5844 103.434C86.2301 103.079 85.5062 99.4903 85.5062 99.4903L83.0029 99.1359L82.166 102.717" stroke="#263238" stroke-width="0.950299" stroke-linecap="round" stroke-linejoin="round"/>
<path d="M78.6976 104.391C78.6976 104.391 79.4516 99.0153 80.2508 98.299C81.0501 97.5827 85.8681 97.7033 86.8182 98.1783C87.7682 98.6534 87.7758 102.959 87.4214 103.909C87.067 104.859 86.4638 105.462 86.1019 105.108C85.7399 104.753 85.0312 101.164 85.0312 101.164L82.5204 100.802L81.6834 104.391" fill="white"/>
<path d="M78.6976 104.391C78.6976 104.391 79.4516 99.0153 80.2508 98.299C81.0501 97.5827 85.8681 97.7033 86.8182 98.1783C87.7682 98.6534 87.7758 102.959 87.4214 103.909C87.067 104.859 86.4638 105.462 86.1019 105.108C85.7399 104.753 85.0312 101.164 85.0312 101.164L82.5204 100.802L81.6834 104.391" stroke="#263238" stroke-width="0.950299" stroke-linecap="round" stroke-linejoin="round"/>
<path d="M78.4639 106.578C78.4639 106.578 79.1425 101.488 79.9719 100.81C80.8013 100.131 85.2499 100.244 86.1924 100.697C87.1349 101.149 87.0972 105.221 86.7579 106.126C86.4186 107.03 85.8531 107.596 85.5138 107.257C85.1745 106.917 84.4959 103.524 84.4959 103.524L82.1208 103.185L81.3668 106.578" fill="white"/>
<path d="M78.4639 106.578C78.4639 106.578 79.1425 101.488 79.9719 100.81C80.8013 100.131 85.2499 100.244 86.1924 100.697C87.1349 101.149 87.0972 105.221 86.7579 106.126C86.4186 107.03 85.8531 107.596 85.5138 107.257C85.1745 106.917 84.4959 103.524 84.4959 103.524L82.1208 103.185L81.3668 106.578" stroke="#263238" stroke-width="0.950299" stroke-linecap="round" stroke-linejoin="round"/>
<path d="M83.2517 104.55C83.2517 104.55 83.9002 108.998 82.7013 111.336C81.5025 113.673 80.1076 113.65 80.1076 113.65" fill="white"/>
<path d="M83.2517 104.55C83.2517 104.55 83.9002 108.998 82.7013 111.336C81.5025 113.673 80.1076 113.65 80.1076 113.65" stroke="#263238" stroke-width="0.950299" stroke-linecap="round" stroke-linejoin="round"/>
<path d="M19.667 353.626H365.029" stroke="#263238" stroke-width="0.950299" stroke-linecap="round" stroke-linejoin="round"/>
</svg>
